<svg width="38" height="48" viewBox="0 0 38 48" fill="none" xmlns="http://www.w3.org/2000/svg">
<path d="M18.3009 37.6522C18.1156 37.132 18.3871 36.56 18.9074 36.3747L28.4365 32.9805C28.9567 32.7952 29.5287 33.0667 29.714 33.587L32.8725 42.4544C33.0578 42.9747 32.7863 43.5467 32.266 43.732L22.7369 47.1262C22.2167 47.3115 21.6447 47.0399 21.4594 46.5197L18.3009 37.6522Z" fill="url(#paint0_linear)"/>
<path opacity="0.8" d="M19.7878 14.8875C20.3028 14.3153 21.2441 14.5152 21.4821 15.2473L28.0948 35.5887C28.3328 36.3208 27.689 37.036 26.936 36.876L6.01351 32.4321C5.26051 32.2722 4.96302 31.3571 5.47803 30.7849L19.7878 14.8875Z" fill="url(#paint1_linear)"/>
<circle opacity="0.7" cx="26.3434" cy="12.1245" r="11.6506" fill="url(#paint2_linear)"/>
<defs>
<linearGradient id="paint0_linear" x1="17.2777" y1="28.7154" x2="33.5241" y2="54.8962" gradientUnits="userSpaceOnUse">
<stop stop-color="#A48EEA"/>
<stop offset="1" stop-color="#A48EEA" stop-opacity="0"/>
</linearGradient>
<linearGradient id="paint1_linear" x1="-2.20526" y1="40.527" x2="42.1964" y2="10.6189" gradientUnits="userSpaceOnUse">
<stop stop-color="#FF5F5F"/>
<stop offset="1" stop-color="white" stop-opacity="0"/>
</linearGradient>
<linearGradient id="paint2_linear" x1="18.8096" y1="23.7751" x2="39.6768" y2="7.09658" gradientUnits="userSpaceOnUse">
<stop stop-color="#FFE178"/>
<stop offset="1" stop-color="#FFE178" stop-opacity="0"/>
</linearGradient>
</defs>
</svg>
