<svg width="685" height="789" viewBox="0 0 685 789" fill="none" xmlns="http://www.w3.org/2000/svg">
<path d="M157.885 614.194C137.705 549.294 261.338 538.332 194.731 444.104C113.28 328.874 270.958 302.044 211.915 177.938C177.667 48.8828 395.897 -34.6174 468.802 14.4698C580.572 89.7253 634.312 20.5268 667.81 66.7307C701.308 112.935 684.258 145.286 623.213 223.675C567.506 295.21 436.947 316.035 411.939 392.267C387.094 468.004 527.886 527.474 495.421 614.194C449.207 737.643 197.023 740.066 157.885 614.194Z" fill="url(#paint0_linear)"/>
<g filter="url(#filter0_d)">
<path d="M202.352 648.469C63.855 760.394 -38.3855 621.688 57.8129 525.443C208.684 374.498 411.448 553.654 499.529 390.354C556.247 285.201 458.484 145.136 458.484 145.136" stroke="white" stroke-width="2" stroke-linecap="round" stroke-linejoin="round"/>
</g>
<g filter="url(#filter1_d)">
<path d="M505.419 248.177C505.563 247.454 506.412 247.129 507.001 247.572L516.268 254.544C516.896 255.017 516.758 255.996 516.023 256.277L504.501 260.68C503.767 260.961 503.01 260.323 503.163 259.551L505.419 248.177Z" fill="white"/>
</g>
<g filter="url(#filter2_d)">
<path d="M138.367 472.856C139.103 472.884 139.558 473.671 139.213 474.323L133.793 484.574C133.425 485.269 132.436 485.288 132.043 484.607L125.876 473.924C125.482 473.243 125.993 472.396 126.779 472.425L138.367 472.856Z" fill="white"/>
</g>
<g filter="url(#filter3_d)">
<path d="M186.189 660.385C80.3382 730.952 -23.5685 604.902 72.5294 508.682C223.243 357.777 426.019 537.145 513.964 373.838C570.594 268.679 459.621 141.342 459.621 141.342" stroke="white" stroke-width="2" stroke-linecap="round" stroke-linejoin="round"/>
</g>
<g filter="url(#filter4_d)">
<path d="M188.318 659.064C91.5153 719.675 -8.72864 588.16 87.3693 491.94C238.083 341.034 440.508 520.198 528.804 357.095C587.218 249.191 456.685 135.124 456.685 135.124" stroke="white" stroke-width="2" stroke-linecap="round" stroke-linejoin="round"/>
</g>
<g filter="url(#filter5_d)">
<path d="M431.036 136.603C431.18 135.88 432.03 135.555 432.619 135.998L441.885 142.969C442.513 143.442 442.375 144.422 441.64 144.703L430.118 149.105C429.384 149.386 428.627 148.748 428.78 147.977L431.036 136.603Z" fill="white"/>
</g>
<circle cx="438.158" cy="113.062" r="53.3458" fill="url(#paint1_linear)"/>
<g filter="url(#filter6_d)">
<path d="M473.525 112.181C473.525 112.181 472.459 119.01 450.217 137.381C436.167 148.984 417.846 157.774 405.177 161.757C387.556 167.296 378.729 164.926 375.597 160.785C370.607 154.188 378.019 143.712 380.258 140.56C381.676 138.562 384.109 135.257 386.868 132.369C388.354 130.813 387.892 130.746 387.892 130.746C387.892 130.746 387.753 129.768 386.428 131.158C383.366 134.368 381.296 136.856 379.034 139.644C377.367 141.699 368.265 154.565 373.087 161.8C378.408 169.781 393.011 167.777 404.289 164.327C412.907 161.69 439.315 149.796 452.05 138.084C471.471 122.818 473.525 112.181 473.525 112.181Z" fill="white"/>
</g>
<g filter="url(#filter7_d)">
<path d="M471.537 98.475C471.537 98.475 468.715 106.287 446.686 125.24C432.225 137.682 413.971 148.404 401.707 153.629C384.65 160.897 376.709 160.275 374.445 156.987C370.838 151.748 379.233 141.411 381.766 138.3C383.372 136.328 384.699 134.253 387.673 131.309C388.236 130.752 387.579 130.64 387.579 130.64C387.579 130.64 387.513 130.28 387.313 130.478C384.012 133.749 383.277 134.853 380.776 137.643C378.933 139.698 368.624 152.393 371.982 158.224C375.686 164.657 389.435 160.945 400.338 156.379C408.67 152.889 430.38 142.044 447.851 126.361C472.276 106.626 471.537 98.475 471.537 98.475Z" fill="white"/>
</g>
<g filter="url(#filter8_d)">
<path d="M470.06 85.4335C470.06 85.4335 466.64 92.8599 442.827 112.838C427.785 125.457 410.232 137.527 398.654 143.971C382.552 152.932 375.852 153.807 374.561 151.497C372.504 147.815 381.774 137.841 384.57 134.838C386.342 132.935 387.833 130.991 387.833 130.991L387.264 130.711C387.264 130.711 387.408 130.783 387.264 130.991C384.644 134.759 386.554 131.738 383.85 134.47C381.857 136.484 370.473 148.733 372.199 152.945C374.102 157.592 386.654 152.135 396.931 146.472C404.784 142.145 425.601 129.839 443.733 113.88C471.196 91.1776 470.06 85.4335 470.06 85.4335Z" fill="white"/>
</g>
<g filter="url(#filter9_d)">
<path d="M472.095 97.8898C472.785 97.6286 473.51 98.1775 473.446 98.9117L472.755 106.839C472.687 107.623 471.782 108.024 471.155 107.55L464.405 102.442C463.778 101.968 463.919 100.988 464.654 100.71L472.095 97.8898Z" fill="white"/>
</g>
<defs>
<filter id="filter0_d" x="1.10352" y="126.126" width="539.112" height="586.988" filterUnits="userSpaceOnUse" color-interpolation-filters="sRGB">
<feFlood flood-opacity="0" result="BackgroundImageFix"/>
<feColorMatrix in="SourceAlpha" type="matrix" values="0 0 0 0 0 0 0 0 0 0 0 0 0 0 0 0 0 0 127 0"/>
<feOffset dx="2" dy="2"/>
<feGaussianBlur stdDeviation="10"/>
<feColorMatrix type="matrix" values="0 0 0 0 1 0 0 0 0 0.883583 0 0 0 0 0.470833 0 0 0 0.7 0"/>
<feBlend mode="normal" in2="BackgroundImageFix" result="effect1_dropShadow"/>
<feBlend mode="normal" in="SourceGraphic" in2="effect1_dropShadow" result="shape"/>
</filter>
<filter id="filter1_d" x="477.144" y="221.371" width="73.5232" height="73.3767" filterUnits="userSpaceOnUse" color-interpolation-filters="sRGB">
<feFlood flood-opacity="0" result="BackgroundImageFix"/>
<feColorMatrix in="SourceAlpha" type="matrix" values="0 0 0 0 0 0 0 0 0 0 0 0 0 0 0 0 0 0 127 0"/>
<feOffset dx="4" dy="4"/>
<feGaussianBlur stdDeviation="15"/>
<feColorMatrix type="matrix" values="0 0 0 0 1 0 0 0 0 0.883583 0 0 0 0 0.470833 0 0 0 0.5 0"/>
<feBlend mode="normal" in2="BackgroundImageFix" result="effect1_dropShadow"/>
<feBlend mode="normal" in="SourceGraphic" in2="effect1_dropShadow" result="shape"/>
</filter>
<filter id="filter2_d" x="99.375" y="441.147" width="77.4051" height="78.3269" filterUnits="userSpaceOnUse" color-interpolation-filters="sRGB">
<feFlood flood-opacity="0" result="BackgroundImageFix"/>
<feColorMatrix in="SourceAlpha" type="matrix" values="0 0 0 0 0 0 0 0 0 0 0 0 0 0 0 0 0 0 127 0"/>
<feOffset dx="4" dy="4"/>
<feGaussianBlur stdDeviation="15"/>
<feColorMatrix type="matrix" values="0 0 0 0 1 0 0 0 0 0.883583 0 0 0 0 0.470833 0 0 0 0.5 0"/>
<feBlend mode="normal" in2="BackgroundImageFix" result="effect1_dropShadow"/>
<feBlend mode="normal" in="SourceGraphic" in2="effect1_dropShadow" result="shape"/>
</filter>
<filter id="filter3_d" x="15.5093" y="122.331" width="537.543" height="581.626" filterUnits="userSpaceOnUse" color-interpolation-filters="sRGB">
<feFlood flood-opacity="0" result="BackgroundImageFix"/>
<feColorMatrix in="SourceAlpha" type="matrix" values="0 0 0 0 0 0 0 0 0 0 0 0 0 0 0 0 0 0 127 0"/>
<feOffset dx="2" dy="2"/>
<feGaussianBlur stdDeviation="10"/>
<feColorMatrix type="matrix" values="0 0 0 0 1 0 0 0 0 0.883583 0 0 0 0 0.470833 0 0 0 0.7 0"/>
<feBlend mode="normal" in2="BackgroundImageFix" result="effect1_dropShadow"/>
<feBlend mode="normal" in="SourceGraphic" in2="effect1_dropShadow" result="shape"/>
</filter>
<filter id="filter4_d" x="30.4336" y="117.113" width="537.406" height="581.351" filterUnits="userSpaceOnUse" color-interpolation-filters="sRGB">
<feFlood flood-opacity="0" result="BackgroundImageFix"/>
<feColorMatrix in="SourceAlpha" type="matrix" values="0 0 0 0 0 0 0 0 0 0 0 0 0 0 0 0 0 0 127 0"/>
<feOffset dx="3" dy="3"/>
<feGaussianBlur stdDeviation="10"/>
<feColorMatrix type="matrix" values="0 0 0 0 1 0 0 0 0 0.883583 0 0 0 0 0.470833 0 0 0 0.7 0"/>
<feBlend mode="normal" in2="BackgroundImageFix" result="effect1_dropShadow"/>
<feBlend mode="normal" in="SourceGraphic" in2="effect1_dropShadow" result="shape"/>
</filter>
<filter id="filter5_d" x="398.964" y="107.304" width="77.6125" height="76.159" filterUnits="userSpaceOnUse" color-interpolation-filters="sRGB">
<feFlood flood-opacity="0" result="BackgroundImageFix"/>
<feColorMatrix in="SourceAlpha" type="matrix" values="0 0 0 0 0 0 0 0 0 0 0 0 0 0 0 0 0 0 127 0"/>
<feOffset dx="4" dy="4"/>
<feGaussianBlur stdDeviation="15"/>
<feColorMatrix type="matrix" values="0 0 0 0 1 0 0 0 0 0.883583 0 0 0 0 0.470833 0 0 0 0.5 0"/>
<feBlend mode="normal" in2="BackgroundImageFix" result="effect1_dropShadow"/>
<feBlend mode="normal" in="SourceGraphic" in2="effect1_dropShadow" result="shape"/>
</filter>
<filter id="filter6_d" x="352.418" y="92.907" width="142.841" height="96.1803" filterUnits="userSpaceOnUse" color-interpolation-filters="sRGB">
<feFlood flood-opacity="0" result="BackgroundImageFix"/>
<feColorMatrix in="SourceAlpha" type="matrix" values="0 0 0 0 0 0 0 0 0 0 0 0 0 0 0 0 0 0 127 0"/>
<feOffset dx="1.23028" dy="1.23028"/>
<feGaussianBlur stdDeviation="10.2523"/>
<feColorMatrix type="matrix" values="0 0 0 0 1 0 0 0 0 0.883583 0 0 0 0 0.470833 0 0 0 0.8 0"/>
<feBlend mode="normal" in2="BackgroundImageFix" result="effect1_dropShadow"/>
<feBlend mode="normal" in="SourceGraphic" in2="effect1_dropShadow" result="shape"/>
</filter>
<filter id="filter7_d" x="352.04" y="79.2007" width="141.235" height="104.207" filterUnits="userSpaceOnUse" color-interpolation-filters="sRGB">
<feFlood flood-opacity="0" result="BackgroundImageFix"/>
<feColorMatrix in="SourceAlpha" type="matrix" values="0 0 0 0 0 0 0 0 0 0 0 0 0 0 0 0 0 0 127 0"/>
<feOffset dx="1.23028" dy="1.23028"/>
<feGaussianBlur stdDeviation="10.2523"/>
<feColorMatrix type="matrix" values="0 0 0 0 1 0 0 0 0 0.883583 0 0 0 0 0.470833 0 0 0 0.8 0"/>
<feBlend mode="normal" in2="BackgroundImageFix" result="effect1_dropShadow"/>
<feBlend mode="normal" in="SourceGraphic" in2="effect1_dropShadow" result="shape"/>
</filter>
<filter id="filter8_d" x="352.747" y="66.1592" width="139.055" height="110.271" filterUnits="userSpaceOnUse" color-interpolation-filters="sRGB">
<feFlood flood-opacity="0" result="BackgroundImageFix"/>
<feColorMatrix in="SourceAlpha" type="matrix" values="0 0 0 0 0 0 0 0 0 0 0 0 0 0 0 0 0 0 127 0"/>
<feOffset dx="1.23028" dy="1.23028"/>
<feGaussianBlur stdDeviation="10.2523"/>
<feColorMatrix type="matrix" values="0 0 0 0 1 0 0 0 0 0.883583 0 0 0 0 0.470833 0 0 0 0.8 0"/>
<feBlend mode="normal" in2="BackgroundImageFix" result="effect1_dropShadow"/>
<feBlend mode="normal" in="SourceGraphic" in2="effect1_dropShadow" result="shape"/>
</filter>
<filter id="filter9_d" x="437.606" y="68.8694" width="73.6202" height="73.2846" filterUnits="userSpaceOnUse" color-interpolation-filters="sRGB">
<feFlood flood-opacity="0" result="BackgroundImageFix"/>
<feColorMatrix in="SourceAlpha" type="matrix" values="0 0 0 0 0 0 0 0 0 0 0 0 0 0 0 0 0 0 127 0"/>
<feOffset dx="4" dy="4"/>
<feGaussianBlur stdDeviation="15"/>
<feColorMatrix type="matrix" values="0 0 0 0 1 0 0 0 0 0.883583 0 0 0 0 0.470833 0 0 0 0.5 0"/>
<feBlend mode="normal" in2="BackgroundImageFix" result="effect1_dropShadow"/>
<feBlend mode="normal" in="SourceGraphic" in2="effect1_dropShadow" result="shape"/>
</filter>
<linearGradient id="paint0_linear" x1="594.112" y1="3.35276" x2="639.159" y2="592.561" gradientUnits="userSpaceOnUse">
<stop stop-color="#B74BB2"/>
<stop offset="1" stop-color="#B39BFF" stop-opacity="0.28"/>
</linearGradient>
<linearGradient id="paint1_linear" x1="438.158" y1="49.5925" x2="463.355" y2="193.991" gradientUnits="userSpaceOnUse">
<stop stop-color="#2E2350"/>
<stop offset="1" stop-color="#6D6780"/>
</linearGradient>
</defs>
</svg>