<svg width="1441" height="1024" viewBox="0 0 1441 1024" fill="none" xmlns="http://www.w3.org/2000/svg">
<g clip-path="url(#clip0)">
<rect width="1441" height="1024" fill="url(#paint0_linear)"/>
<g filter="url(#filter0_d)">
<path d="M882.595 375H1448V251C1448 251 1363.4 304.407 1274.65 290.825C1235.04 284.763 1201.42 264.67 1162.75 274.533C1131.27 282.562 1103.96 314.08 1075.33 328.387C1036.96 347.556 1012.06 314.743 970.916 328.387C944.622 337.106 898.656 361.909 881.608 371.318C879.809 372.312 880.539 375 882.595 375Z" fill="white" fill-opacity="0.4"/>
</g>
<g filter="url(#filter1_d)">
<path d="M954.238 402H1517V313C1517 313 1432.4 351.332 1343.65 341.584C1304.04 337.233 1270.42 322.811 1231.75 329.891C1200.27 335.654 1172.96 358.275 1144.33 368.544C1105.96 382.302 1081.06 358.751 1039.92 368.544C1014.98 374.478 972.365 390.791 953.483 398.222C951.44 399.027 952.042 402 954.238 402Z" fill="white"/>
</g>
<path d="M0 852.711C0 852.711 117.5 797.66 150.5 797.66C183.5 797.66 301 889.19 334.5 884.66C368 880.13 425.453 816.66 455 816.66C484.547 816.66 564.5 899.517 602.5 900.16C623 900.507 715.108 847.446 738.5 840.16C769 830.66 863.5 886.883 892 884.66C920.5 882.437 1027 794.607 1053.5 797.66C1080 800.713 1135.5 852.533 1157 852.711C1178.5 852.889 1256.5 773.925 1276.5 771.16C1308 766.805 1440.5 852.711 1440.5 852.711V1753.16H0V852.711Z" fill="url(#paint1_linear)"/>
<path d="M0 883.66C0 883.66 125.5 829.66 177.5 829.66C229.5 829.66 247.488 931.116 281 926.66C314.512 922.205 381.443 863.66 411 863.66C440.557 863.66 599.987 967.528 638 968.16C658.507 968.501 711.6 911.693 735 904.527C765.511 895.183 894.753 961.142 923.263 958.955C951.773 956.769 1041.12 850.674 1067.63 853.677C1094.14 856.679 1164.49 878.985 1186 879.16C1207.51 879.335 1288.49 791.38 1308.5 788.66C1340.01 784.377 1441 904.527 1441 904.527V1790.16H0V883.66Z" fill="url(#paint2_linear)"/>
</g>
<defs>
<filter id="filter0_d" x="854.586" y="225" width="627.414" height="184" filterUnits="userSpaceOnUse" color-interpolation-filters="sRGB">
<feFlood flood-opacity="0" result="BackgroundImageFix"/>
<feColorMatrix in="SourceAlpha" type="matrix" values="0 0 0 0 0 0 0 0 0 0 0 0 0 0 0 0 0 0 127 0"/>
<feOffset dx="4" dy="4"/>
<feGaussianBlur stdDeviation="15"/>
<feColorMatrix type="matrix" values="0 0 0 0 0 0 0 0 0 0 0 0 0 0 0 0 0 0 0.05 0"/>
<feBlend mode="normal" in2="BackgroundImageFix" result="effect1_dropShadow"/>
<feBlend mode="normal" in="SourceGraphic" in2="effect1_dropShadow" result="shape"/>
</filter>
<filter id="filter1_d" x="926.231" y="287" width="624.769" height="149" filterUnits="userSpaceOnUse" color-interpolation-filters="sRGB">
<feFlood flood-opacity="0" result="BackgroundImageFix"/>
<feColorMatrix in="SourceAlpha" type="matrix" values="0 0 0 0 0 0 0 0 0 0 0 0 0 0 0 0 0 0 127 0"/>
<feOffset dx="4" dy="4"/>
<feGaussianBlur stdDeviation="15"/>
<feColorMatrix type="matrix" values="0 0 0 0 0 0 0 0 0 0 0 0 0 0 0 0 0 0 0.05 0"/>
<feBlend mode="normal" in2="BackgroundImageFix" result="effect1_dropShadow"/>
<feBlend mode="normal" in="SourceGraphic" in2="effect1_dropShadow" result="shape"/>
</filter>
<linearGradient id="paint0_linear" x1="782.5" y1="1602" x2="785.267" y2="50.304" gradientUnits="userSpaceOnUse">
<stop stop-color="#FF69FF"/>
<stop offset="0.833333" stop-color="#464370"/>
</linearGradient>
<linearGradient id="paint1_linear" x1="763.5" y1="1558.66" x2="733.674" y2="661.704" gradientUnits="userSpaceOnUse">
<stop stop-color="#2B2C46"/>
<stop offset="1" stop-color="#270641" stop-opacity="0"/>
</linearGradient>
<linearGradient id="paint2_linear" x1="763.765" y1="1598.86" x2="734.921" y2="716.63" gradientUnits="userSpaceOnUse">
<stop stop-color="#2B2C46"/>
<stop offset="1" stop-color="#270641" stop-opacity="0.19"/>
</linearGradient>
<clipPath id="clip0">
<rect width="1441" height="1024" fill="white"/>
</clipPath>
</defs>
</svg>
