<svg width="1441" height="1024" viewBox="0 0 1441 1024" fill="none" xmlns="http://www.w3.org/2000/svg">
<g clip-path="url(#clip0)">
<rect width="1441" height="1024" fill="url(#paint0_linear)"/>
<path d="M0 830C0 830 32 787.32 57.5 797.66C65.9084 801.07 84.7944 841.503 103.5 830C138.011 808.778 172 775.5 205 805C238 834.5 232 797.032 252.5 811.5C288.378 836.82 267.5 840.16 311 849C354.5 857.84 361.5 797 418 825C432.428 832.15 437.5 871.786 459.5 863.5C476.923 856.938 484.568 839.558 509.5 849C539.66 860.422 529.5 889.5 596 889.5C616.503 889.5 630.608 837.286 654 830C697 816.607 673 872.5 735 872.5C764 872.5 763 884 791.5 889.5C805.851 892.27 810.5 876 875 864.5C926.5 845 908 796.5 956.5 822C975.932 832.217 993.526 855.35 1027 860C1077.07 866.956 1078.5 808.5 1107.5 802C1136.5 795.5 1130.95 851.794 1156.5 831C1180.26 811.663 1189.77 775 1199.5 775C1234.5 775 1225 807 1269 807C1311 802 1296 801.498 1344 784C1355.75 778.309 1389.48 802.349 1402.5 802C1423.01 801.451 1440.5 789 1440.5 789V1753.16H0V830Z" fill="url(#paint1_linear)"/>
<path d="M-11 864.261C-11 864.261 31.9302 855.857 57.4406 860.772C65.8524 862.393 84.746 881.614 103.459 876.146C137.984 866.057 171.987 850.238 205 864.261C238.014 878.285 232.011 860.474 252.519 867.351C288.412 879.388 267.526 880.976 311.043 885.178C354.561 889.381 361.564 860.458 418.086 873.769C432.52 877.168 437.594 896.01 459.603 892.071C477.033 888.952 484.681 880.69 509.623 885.178C539.796 890.608 536.134 909.499 602.661 909.499C623.172 909.499 630.781 879.61 654.182 876.146C666.563 874.314 662.185 888.744 724.21 888.744C786.736 890.645 758.224 906.884 786.736 909.499C801.093 910.815 810.745 898.014 875.271 892.547C926.792 883.277 908.285 860.221 956.804 872.343C976.244 877.2 993.846 888.197 1027.33 890.407C1077.43 893.714 1078.85 865.925 1107.87 862.835C1136.88 859.745 1131.32 886.506 1156.89 876.621C1180.65 867.429 1190.17 850 1199.9 850C1234.92 850 1225.41 865.212 1269.43 865.212C1311.45 862.835 1296.44 862.597 1344.46 854.278C1356.22 851.573 1389.96 863.001 1402.98 862.835C1423.5 862.574 1441 856.655 1441 856.655V1315H-11V864.261Z" fill="url(#paint2_linear)"/>
<g filter="url(#filter0_d)">
<path d="M957.512 322.711H1447.12V214.747C1447.12 214.747 1373.71 261.247 1296.71 249.421C1262.34 244.143 1233.16 226.648 1199.61 235.236C1172.3 242.227 1148.6 269.669 1123.76 282.126C1090.47 298.816 1068.87 270.246 1033.16 282.126C1010.78 289.575 971.955 310.508 956.532 319.031C954.734 320.024 955.458 322.711 957.512 322.711Z" fill="white" fill-opacity="0.4"/>
</g>
<g filter="url(#filter1_d)">
<path d="M1020.07 346.3H1507V269.182C1507 269.182 1433.59 302.397 1356.59 293.95C1322.22 290.18 1293.04 277.684 1259.49 283.818C1232.18 288.811 1208.48 308.413 1183.64 317.31C1150.35 329.232 1128.74 308.825 1093.04 317.31C1071.96 322.322 1036.29 335.878 1019.33 342.524C1017.28 343.325 1017.87 346.3 1020.07 346.3Z" fill="white"/>
</g>
<line y1="-1.5" x2="5.43694" y2="-1.5" transform="matrix(0.705876 -0.708335 0.705876 0.708335 920 268.791)" stroke="white" stroke-opacity="0.7" stroke-width="3"/>
<line x1="1272.77" y1="410.949" x2="1276.79" y2="406.933" stroke="white" stroke-opacity="0.7" stroke-width="3"/>
<line y1="-1.5" x2="5.43694" y2="-1.5" transform="matrix(0.705876 -0.708335 0.705876 0.708335 1150.27 137.851)" stroke="white" stroke-opacity="0.7" stroke-width="3"/>
<line y1="-1.5" x2="5.43694" y2="-1.5" transform="matrix(0.705876 -0.708335 0.705876 0.708335 1109.33 234.131)" stroke="white" stroke-opacity="0.7" stroke-width="3"/>
</g>
<defs>
<filter id="filter0_d" x="929.508" y="188.747" width="551.612" height="167.964" filterUnits="userSpaceOnUse" color-interpolation-filters="sRGB">
<feFlood flood-opacity="0" result="BackgroundImageFix"/>
<feColorMatrix in="SourceAlpha" type="matrix" values="0 0 0 0 0 0 0 0 0 0 0 0 0 0 0 0 0 0 127 0"/>
<feOffset dx="4" dy="4"/>
<feGaussianBlur stdDeviation="15"/>
<feColorMatrix type="matrix" values="0 0 0 0 0 0 0 0 0 0 0 0 0 0 0 0 0 0 0.05 0"/>
<feBlend mode="normal" in2="BackgroundImageFix" result="effect1_dropShadow"/>
<feBlend mode="normal" in="SourceGraphic" in2="effect1_dropShadow" result="shape"/>
</filter>
<filter id="filter1_d" x="992.071" y="243.182" width="548.929" height="137.117" filterUnits="userSpaceOnUse" color-interpolation-filters="sRGB">
<feFlood flood-opacity="0" result="BackgroundImageFix"/>
<feColorMatrix in="SourceAlpha" type="matrix" values="0 0 0 0 0 0 0 0 0 0 0 0 0 0 0 0 0 0 127 0"/>
<feOffset dx="4" dy="4"/>
<feGaussianBlur stdDeviation="15"/>
<feColorMatrix type="matrix" values="0 0 0 0 0 0 0 0 0 0 0 0 0 0 0 0 0 0 0.05 0"/>
<feBlend mode="normal" in2="BackgroundImageFix" result="effect1_dropShadow"/>
<feBlend mode="normal" in="SourceGraphic" in2="effect1_dropShadow" result="shape"/>
</filter>
<linearGradient id="paint0_linear" x1="782.5" y1="1602" x2="785.267" y2="50.304" gradientUnits="userSpaceOnUse">
<stop stop-color="#FF69FF"/>
<stop offset="0.833333" stop-color="#464370"/>
</linearGradient>
<linearGradient id="paint1_linear" x1="763.5" y1="1558.66" x2="733.674" y2="661.704" gradientUnits="userSpaceOnUse">
<stop stop-color="#2B2C46"/>
<stop offset="1" stop-color="#270641" stop-opacity="0"/>
</linearGradient>
<linearGradient id="paint2_linear" x1="763.726" y1="1222.54" x2="756.983" y2="795.776" gradientUnits="userSpaceOnUse">
<stop stop-color="#2B2C46"/>
<stop offset="1" stop-color="#270641" stop-opacity="0"/>
</linearGradient>
<clipPath id="clip0">
<rect width="1441" height="1024" fill="white"/>
</clipPath>
</defs>
</svg>
