<svg width="195" height="192" viewBox="0 0 195 192" fill="none" xmlns="http://www.w3.org/2000/svg">
<path d="M194 22.5001C136 22.5 157.108 87.1094 105.5 100C68.327 109.285 28.8395 153.027 28 191.5" stroke="#8C67FF" stroke-opacity="0.5" stroke-width="17"/>
<path d="M194 2.00006C117.5 5 136.5 73 103 78.0001C57.8656 84.7367 10.4916 145.399 9.5 191.5" stroke="#FF5F5F" stroke-opacity="0.5" stroke-width="4"/>
<g filter="url(#filter0_d)">
<path d="M111.428 137.037C109.724 138.023 107.462 137.305 106.375 135.433C105.288 133.561 105.788 131.244 107.492 130.258C109.196 129.273 111.459 129.991 112.545 131.863C113.632 133.735 113.132 136.052 111.428 137.037Z" fill="#FE5E62"/>
<path d="M111.303 136.821C109.737 137.727 107.62 137.08 106.591 135.308C105.562 133.535 106.052 131.38 107.618 130.475C109.183 129.569 111.3 130.216 112.329 131.988C113.358 133.761 112.868 135.916 111.303 136.821Z" stroke="white" stroke-opacity="0.5" stroke-width="0.5"/>
</g>
<g filter="url(#filter1_d)">
<path d="M110.053 138.286C110.053 138.286 109.653 151.383 78.6291 134.254C62.7191 125.469 47.532 112.009 39.4471 101.297C28.2028 86.3985 27.1547 76.754 30.1082 71.8994C34.8138 64.1651 47.4152 66.925 51.2092 67.7634C53.6137 68.2947 57.6204 69.2578 61.334 70.7208C64.8879 72.1209 71.4625 74.8574 71.4625 74.8574C71.4625 74.8574 67.0078 71.5954 62.3569 69.7677C58.2311 68.1463 55.1348 67.1875 51.6843 66.1687C49.1418 65.4181 33.6657 62.0299 28.2884 69.8748C22.3558 78.5297 29.1753 91.9902 36.2803 101.566C41.7101 108.885 57.7871 127.085 77.9173 136.771C109.842 154.603 110.053 138.286 110.053 138.286Z" fill="white"/>
</g>
<defs>
<filter id="filter0_d" x="81.2523" y="105.268" width="60.6091" height="60.9524" filterUnits="userSpaceOnUse" color-interpolation-filters="sRGB">
<feFlood flood-opacity="0" result="BackgroundImageFix"/>
<feColorMatrix in="SourceAlpha" type="matrix" values="0 0 0 0 0 0 0 0 0 0 0 0 0 0 0 0 0 0 127 0"/>
<feOffset dx="2.09665" dy="2.09665"/>
<feGaussianBlur stdDeviation="13.3224"/>
<feColorMatrix type="matrix" values="0 0 0 0 0.996078 0 0 0 0 0.368627 0 0 0 0 0.384314 0 0 0 0.5 0"/>
<feBlend mode="normal" in2="BackgroundImageFix" result="effect1_dropShadow"/>
<feBlend mode="normal" in="SourceGraphic" in2="effect1_dropShadow" result="shape"/>
</filter>
<filter id="filter1_d" x="0.980314" y="39.7513" width="137.316" height="133.601" filterUnits="userSpaceOnUse" color-interpolation-filters="sRGB">
<feFlood flood-opacity="0" result="BackgroundImageFix"/>
<feColorMatrix in="SourceAlpha" type="matrix" values="0 0 0 0 0 0 0 0 0 0 0 0 0 0 0 0 0 0 127 0"/>
<feOffset dx="1.59868" dy="1.59868"/>
<feGaussianBlur stdDeviation="13.3224"/>
<feColorMatrix type="matrix" values="0 0 0 0 0.996078 0 0 0 0 0.368627 0 0 0 0 0.388235 0 0 0 0.8 0"/>
<feBlend mode="normal" in2="BackgroundImageFix" result="effect1_dropShadow"/>
<feBlend mode="normal" in="SourceGraphic" in2="effect1_dropShadow" result="shape"/>
</filter>
</defs>
</svg>
