<svg width="58" height="57" viewBox="0 0 58 57" fill="none" xmlns="http://www.w3.org/2000/svg">
<path d="M5.48867 22.8909C4.97101 15.1327 23.4547 4.66115 31.5539 8.4918C40.8563 12.8915 33.8976 20.9955 32.8567 28.0182C31.4437 37.552 26.3508 39.9601 19.7568 39.3932C13.1627 38.8263 5.89599 28.996 5.48867 22.8909Z" fill="url(#paint0_linear)"/>
<path d="M42.4411 33.6073L53.6346 40.1841L42.3422 46.5896L42.4411 33.6073Z" fill="url(#paint1_linear)"/>
<path d="M27.7206 24.2593C27.8787 23.7301 28.4358 23.4292 28.965 23.5873L48.7958 29.5104C49.325 29.6685 49.6259 30.2256 49.4678 30.7548L43.9212 49.3249C43.7632 49.854 43.206 50.1549 42.6769 49.9968L22.846 44.0737C22.3168 43.9156 22.016 43.3585 22.1741 42.8293L27.7206 24.2593Z" fill="#FE5E62" fill-opacity="0.25"/>
<defs>
<linearGradient id="paint0_linear" x1="5.72481" y1="51.0408" x2="28.9725" y2="3.89598" gradientUnits="userSpaceOnUse">
<stop stop-color="#FFE178"/>
<stop offset="1" stop-color="white" stop-opacity="0"/>
</linearGradient>
<linearGradient id="paint1_linear" x1="42.7214" y1="52.1553" x2="49.7954" y2="23.2296" gradientUnits="userSpaceOnUse">
<stop stop-color="#B39BFF"/>
<stop offset="1" stop-color="white" stop-opacity="0"/>
</linearGradient>
</defs>
</svg>
