<svg width="72" height="73" viewBox="0 0 72 73" fill="none" xmlns="http://www.w3.org/2000/svg">
<g filter="url(#filter0_d)">
<circle cx="34.6609" cy="31.929" r="17.7654" fill="url(#paint0_linear)"/>
</g>
<g filter="url(#filter1_d)">
<path d="M18.1498 38.2672C15.4111 41.8886 13.9866 47.3817 13.9311 49.8799C13.8756 52.378 15.3607 54.5385 17.4743 54.9585C19.588 55.3785 22.6248 54.6442 26.2076 52.8469C29.7903 51.0496 33.761 48.2685 37.6263 44.8492C41.4915 41.4299 45.081 37.5231 47.9486 33.6142C50.8162 29.7054 52.8356 25.9668 53.7558 22.863C54.676 19.7591 54.18 17.7035 52.8481 16.4327C51.5161 15.1619 46.8218 14.8179 43.4691 16.5004L45.0061 17.3962C47.8204 16.5159 49.9649 16.9967 51.1576 18.1346C52.3503 19.2725 52.5468 21.3608 51.7228 24.14C50.8989 26.9192 49.0907 30.2669 46.5229 33.767C43.9552 37.267 40.7411 40.7653 37.2801 43.827C33.819 46.8888 30.2636 49.379 27.0555 50.9884C23.8474 52.5977 21.1282 53.2552 19.2356 52.8791C17.343 52.5031 16.3605 51.11 16.4102 48.8731C16.4599 46.6362 17.3108 44.0256 19.2863 40.6687L18.1498 38.2672Z" fill="#FFE178"/>
</g>
<path d="M55.1701 16.1375C55.1701 16.9551 54.0139 17.618 53.1963 17.618C52.3786 17.618 52.2098 16.631 52.7031 15.644C53.1959 14.6571 53.3655 14.1636 54.1831 14.1636C55.0007 14.1636 55.1701 15.3199 55.1701 16.1375Z" fill="#B39BFF"/>
<path d="M59.1181 20.2967C59.1181 20.9975 57.8703 21.5656 56.9878 21.5656C56.1053 21.5656 55.923 20.7197 56.4555 19.8737C56.9874 19.0277 57.1704 18.6047 58.0529 18.6047C58.9354 18.6047 59.1181 19.5959 59.1181 20.2967Z" fill="#B39BFF"/>
<path d="M42.5566 35.5948C42.5566 36.2956 41.3087 36.8637 40.4262 36.8637C39.5438 36.8637 39.3615 36.0178 39.894 35.1718C40.4259 34.3258 40.6089 33.9028 41.4914 33.9028C42.3738 33.9028 42.5566 34.894 42.5566 35.5948Z" fill="#B39BFF"/>
<path d="M25.6016 53.3699C26.2368 53.6658 26.2247 55.0369 25.852 55.8368C25.4793 56.6367 24.6355 56.4446 24.0936 55.6047C23.5514 54.7653 23.2453 54.4208 23.618 53.6208C23.9907 52.8209 24.9663 53.0739 25.6016 53.3699Z" fill="#B39BFF"/>
<g filter="url(#filter2_d)">
<path d="M22.817 11.2028C22.1261 11.1621 19.3626 13.5715 19.3626 15.1506C19.3626 13.5715 17.29 11.2028 15.9082 11.2028C17.29 11.2028 17.9808 10.4132 19.3626 7.25488C20.7444 10.4132 20.7444 10.4132 22.817 11.2028Z" fill="#FFE178"/>
</g>
<g filter="url(#filter3_d)">
<path d="M10.9733 45.2531C10.5785 45.2277 8.99933 46.7335 8.99933 47.7205C8.99933 46.7335 7.81497 45.2531 7.02539 45.2531C7.81497 45.2531 8.20975 44.7596 8.99933 42.7856C9.7889 44.7596 9.7889 44.7596 10.9733 45.2531Z" fill="#FFE178"/>
</g>
<g filter="url(#filter4_d)">
<path d="M47.4915 55.1228C47.2941 55.1075 46.5045 56.0111 46.5045 56.6032C46.5045 56.0111 45.9124 55.1228 45.5176 55.1228C45.9124 55.1228 46.1098 54.8267 46.5045 53.6423C46.8993 54.8267 46.8993 54.8267 47.4915 55.1228Z" fill="#FFE178"/>
</g>
<defs>
<filter id="filter0_d" x="9.84373" y="7.1118" width="53.5823" height="53.5823" filterUnits="userSpaceOnUse" color-interpolation-filters="sRGB">
<feFlood flood-opacity="0" result="BackgroundImageFix"/>
<feColorMatrix in="SourceAlpha" type="matrix" values="0 0 0 0 0 0 0 0 0 0 0 0 0 0 0 0 0 0 127 0" result="hardAlpha"/>
<feOffset dx="1.97394" dy="1.97394"/>
<feGaussianBlur stdDeviation="4.51286"/>
<feColorMatrix type="matrix" values="0 0 0 0 1 0 0 0 0 1 0 0 0 0 1 0 0 0 0.5 0"/>
<feBlend mode="normal" in2="BackgroundImageFix" result="effect1_dropShadow"/>
<feBlend mode="normal" in="SourceGraphic" in2="effect1_dropShadow" result="shape"/>
</filter>
<filter id="filter1_d" x="2.08606" y="3.51306" width="69.9059" height="69.326" filterUnits="userSpaceOnUse" color-interpolation-filters="sRGB">
<feFlood flood-opacity="0" result="BackgroundImageFix"/>
<feColorMatrix in="SourceAlpha" type="matrix" values="0 0 0 0 0 0 0 0 0 0 0 0 0 0 0 0 0 0 127 0" result="hardAlpha"/>
<feOffset dx="2.96091" dy="2.96091"/>
<feGaussianBlur stdDeviation="7.40227"/>
<feColorMatrix type="matrix" values="0 0 0 0 1 0 0 0 0 1 0 0 0 0 1 0 0 0 0.6 0"/>
<feBlend mode="normal" in2="BackgroundImageFix" result="effect1_dropShadow"/>
<feBlend mode="normal" in="SourceGraphic" in2="effect1_dropShadow" result="shape"/>
</filter>
<filter id="filter2_d" x="8.99942" y="0.3461" width="26.6482" height="27.6351" filterUnits="userSpaceOnUse" color-interpolation-filters="sRGB">
<feFlood flood-opacity="0" result="BackgroundImageFix"/>
<feColorMatrix in="SourceAlpha" type="matrix" values="0 0 0 0 0 0 0 0 0 0 0 0 0 0 0 0 0 0 127 0" result="hardAlpha"/>
<feOffset dx="2.96091" dy="2.96091"/>
<feGaussianBlur stdDeviation="4.93484"/>
<feColorMatrix type="matrix" values="0 0 0 0 1 0 0 0 0 1 0 0 0 0 1 0 0 0 0.7 0"/>
<feBlend mode="normal" in2="BackgroundImageFix" result="effect1_dropShadow"/>
<feBlend mode="normal" in="SourceGraphic" in2="effect1_dropShadow" result="shape"/>
</filter>
<filter id="filter3_d" x="0.116608" y="35.8769" width="23.6873" height="24.6742" filterUnits="userSpaceOnUse" color-interpolation-filters="sRGB">
<feFlood flood-opacity="0" result="BackgroundImageFix"/>
<feColorMatrix in="SourceAlpha" type="matrix" values="0 0 0 0 0 0 0 0 0 0 0 0 0 0 0 0 0 0 127 0" result="hardAlpha"/>
<feOffset dx="2.96091" dy="2.96091"/>
<feGaussianBlur stdDeviation="4.93484"/>
<feColorMatrix type="matrix" values="0 0 0 0 1 0 0 0 0 1 0 0 0 0 1 0 0 0 0.7 0"/>
<feBlend mode="normal" in2="BackgroundImageFix" result="effect1_dropShadow"/>
<feBlend mode="normal" in="SourceGraphic" in2="effect1_dropShadow" result="shape"/>
</filter>
<filter id="filter4_d" x="38.6088" y="46.7336" width="21.7133" height="22.7003" filterUnits="userSpaceOnUse" color-interpolation-filters="sRGB">
<feFlood flood-opacity="0" result="BackgroundImageFix"/>
<feColorMatrix in="SourceAlpha" type="matrix" values="0 0 0 0 0 0 0 0 0 0 0 0 0 0 0 0 0 0 127 0" result="hardAlpha"/>
<feOffset dx="2.96091" dy="2.96091"/>
<feGaussianBlur stdDeviation="4.93484"/>
<feColorMatrix type="matrix" values="0 0 0 0 1 0 0 0 0 1 0 0 0 0 1 0 0 0 0.7 0"/>
<feBlend mode="normal" in2="BackgroundImageFix" result="effect1_dropShadow"/>
<feBlend mode="normal" in="SourceGraphic" in2="effect1_dropShadow" result="shape"/>
</filter>
<linearGradient id="paint0_linear" x1="27.7522" y1="47.227" x2="48.972" y2="-0.147476" gradientUnits="userSpaceOnUse">
<stop stop-color="#FF4E64"/>
<stop offset="1" stop-color="#EB31D6"/>
</linearGradient>
</defs>
</svg>
