<svg width="375" height="168" viewBox="0 0 375 168" fill="none" xmlns="http://www.w3.org/2000/svg">
<path d="M0 9.55765C145 29.9133 236.5 -5.07262 375 9.55765V155.863C231.5 143.14 148 171.129 0 155.863V9.55765Z" fill="url(#paint0_linear)"/>
<path d="M5.5 162.5C5.5 162.5 39.6534 165.57 62.2467 166.468C84.8401 167.366 121 166 121 166" stroke="white" stroke-width="0.5"/>
<path d="M371 5C371 5 339.091 1.3916 312.753 1.03608C286.416 0.680556 254 2.5 254 2.5" stroke="white" stroke-width="0.5"/>
<g filter="url(#filter0_d)">
<circle cx="65.8616" cy="75.3914" r="16.5198" fill="url(#paint1_linear)"/>
</g>
<g filter="url(#filter1_d)">
<path d="M50.5079 81.2852C47.9612 84.6527 46.6366 89.7606 46.5849 92.0837C46.5333 94.4067 47.9143 96.4156 49.8797 96.8062C51.8452 97.1967 54.6691 96.5139 58.0006 94.8426C61.3322 93.1714 65.0244 90.5853 68.6187 87.4057C72.2129 84.2262 75.5507 80.5933 78.2172 76.9585C80.8838 73.3237 82.7615 69.8473 83.6172 66.9611C84.4729 64.0749 84.0117 62.1634 82.7732 60.9817C81.5346 59.8 77.1694 59.4801 74.0518 61.0447L75.4811 61.8777C78.0981 61.0591 80.0922 61.5062 81.2012 62.5643C82.3103 63.6224 82.493 65.5642 81.7268 68.1486C80.9606 70.7329 79.2792 73.8459 76.8915 77.1005C74.5039 80.3552 71.5151 83.6082 68.2968 86.4552C65.0784 89.3023 61.7722 91.6179 58.7891 93.1144C55.806 94.6109 53.2774 95.2223 51.5175 94.8726C49.7576 94.5229 48.844 93.2276 48.8902 91.1475C48.9364 89.0674 49.7276 86.6399 51.5647 83.5183L50.5079 81.2852Z" fill="#FFE178"/>
</g>
<path d="M84.9328 60.7071C84.9328 61.4674 83.8577 62.0838 83.0974 62.0838C82.3371 62.0838 82.1801 61.166 82.6388 60.2482C83.097 59.3305 83.2547 58.8716 84.015 58.8716C84.7753 58.8716 84.9328 59.9468 84.9328 60.7071Z" fill="#B39BFF"/>
<path d="M88.6039 64.5748C88.6039 65.2265 87.4435 65.7548 86.6229 65.7548C85.8023 65.7548 85.6328 64.9681 86.1279 64.1814C86.6225 63.3948 86.7927 63.0015 87.6133 63.0015C88.4339 63.0015 88.6039 63.9231 88.6039 64.5748Z" fill="#B39BFF"/>
<path d="M73.2035 78.8001C73.2035 79.4518 72.0431 79.9801 71.2225 79.9801C70.4019 79.9801 70.2324 79.1934 70.7275 78.4068C71.2221 77.6201 71.3923 77.2268 72.2129 77.2268C73.0335 77.2268 73.2035 78.1484 73.2035 78.8001Z" fill="#B39BFF"/>
<path d="M57.4376 95.3289C58.0283 95.6041 58.0171 96.879 57.6705 97.6229C57.3239 98.3667 56.5393 98.188 56.0353 97.407C55.5312 96.6264 55.2465 96.3061 55.5931 95.5622C55.9397 94.8184 56.8469 95.0536 57.4376 95.3289Z" fill="#B39BFF"/>
<g filter="url(#filter2_d)">
<path d="M54.8482 56.1182C54.2058 56.0804 51.636 58.3208 51.636 59.7893C51.636 58.3208 49.7087 56.1182 48.4238 56.1182C49.7087 56.1182 50.3511 55.384 51.636 52.4471C52.9209 55.384 52.9209 55.384 54.8482 56.1182Z" fill="#FFE178"/>
</g>
<g filter="url(#filter3_d)">
<path d="M43.8351 87.7812C43.468 87.7576 41.9996 89.1579 41.9996 90.0756C41.9996 89.1579 40.8983 87.7812 40.1641 87.7812C40.8983 87.7812 41.2654 87.3223 41.9996 85.4868C42.7338 87.3223 42.7338 87.3223 43.8351 87.7812Z" fill="#FFE178"/>
</g>
<g filter="url(#filter4_d)">
<path d="M77.7926 96.9588C77.609 96.9446 76.8748 97.7848 76.8748 98.3355C76.8748 97.7848 76.3241 96.9588 75.957 96.9588C76.3241 96.9588 76.5077 96.6835 76.8748 95.5822C77.2419 96.6835 77.2419 96.6835 77.7926 96.9588Z" fill="#FFE178"/>
</g>
<defs>
<filter id="filter0_d" x="42.7845" y="52.3143" width="49.8253" height="49.8253" filterUnits="userSpaceOnUse" color-interpolation-filters="sRGB">
<feFlood flood-opacity="0" result="BackgroundImageFix"/>
<feColorMatrix in="SourceAlpha" type="matrix" values="0 0 0 0 0 0 0 0 0 0 0 0 0 0 0 0 0 0 127 0" result="hardAlpha"/>
<feOffset dx="1.83553" dy="1.83553"/>
<feGaussianBlur stdDeviation="4.19643"/>
<feColorMatrix type="matrix" values="0 0 0 0 1 0 0 0 0 1 0 0 0 0 1 0 0 0 0.5 0"/>
<feBlend mode="normal" in2="BackgroundImageFix" result="effect1_dropShadow"/>
<feBlend mode="normal" in="SourceGraphic" in2="effect1_dropShadow" result="shape"/>
</filter>
<filter id="filter1_d" x="35.5708" y="48.9679" width="65.0043" height="64.4651" filterUnits="userSpaceOnUse" color-interpolation-filters="sRGB">
<feFlood flood-opacity="0" result="BackgroundImageFix"/>
<feColorMatrix in="SourceAlpha" type="matrix" values="0 0 0 0 0 0 0 0 0 0 0 0 0 0 0 0 0 0 127 0" result="hardAlpha"/>
<feOffset dx="2.7533" dy="2.7533"/>
<feGaussianBlur stdDeviation="6.88324"/>
<feColorMatrix type="matrix" values="0 0 0 0 1 0 0 0 0 1 0 0 0 0 1 0 0 0 0.6 0"/>
<feBlend mode="normal" in2="BackgroundImageFix" result="effect1_dropShadow"/>
<feBlend mode="normal" in="SourceGraphic" in2="effect1_dropShadow" result="shape"/>
</filter>
<filter id="filter2_d" x="41.9995" y="46.0228" width="24.7797" height="25.6974" filterUnits="userSpaceOnUse" color-interpolation-filters="sRGB">
<feFlood flood-opacity="0" result="BackgroundImageFix"/>
<feColorMatrix in="SourceAlpha" type="matrix" values="0 0 0 0 0 0 0 0 0 0 0 0 0 0 0 0 0 0 127 0" result="hardAlpha"/>
<feOffset dx="2.7533" dy="2.7533"/>
<feGaussianBlur stdDeviation="4.58883"/>
<feColorMatrix type="matrix" values="0 0 0 0 1 0 0 0 0 1 0 0 0 0 1 0 0 0 0.7 0"/>
<feBlend mode="normal" in2="BackgroundImageFix" result="effect1_dropShadow"/>
<feBlend mode="normal" in="SourceGraphic" in2="effect1_dropShadow" result="shape"/>
</filter>
<filter id="filter3_d" x="33.7397" y="79.0625" width="22.0264" height="22.9441" filterUnits="userSpaceOnUse" color-interpolation-filters="sRGB">
<feFlood flood-opacity="0" result="BackgroundImageFix"/>
<feColorMatrix in="SourceAlpha" type="matrix" values="0 0 0 0 0 0 0 0 0 0 0 0 0 0 0 0 0 0 127 0" result="hardAlpha"/>
<feOffset dx="2.7533" dy="2.7533"/>
<feGaussianBlur stdDeviation="4.58883"/>
<feColorMatrix type="matrix" values="0 0 0 0 1 0 0 0 0 1 0 0 0 0 1 0 0 0 0.7 0"/>
<feBlend mode="normal" in2="BackgroundImageFix" result="effect1_dropShadow"/>
<feBlend mode="normal" in="SourceGraphic" in2="effect1_dropShadow" result="shape"/>
</filter>
<filter id="filter4_d" x="69.5327" y="89.1578" width="20.1908" height="21.1086" filterUnits="userSpaceOnUse" color-interpolation-filters="sRGB">
<feFlood flood-opacity="0" result="BackgroundImageFix"/>
<feColorMatrix in="SourceAlpha" type="matrix" values="0 0 0 0 0 0 0 0 0 0 0 0 0 0 0 0 0 0 127 0" result="hardAlpha"/>
<feOffset dx="2.7533" dy="2.7533"/>
<feGaussianBlur stdDeviation="4.58883"/>
<feColorMatrix type="matrix" values="0 0 0 0 1 0 0 0 0 1 0 0 0 0 1 0 0 0 0.7 0"/>
<feBlend mode="normal" in2="BackgroundImageFix" result="effect1_dropShadow"/>
<feBlend mode="normal" in="SourceGraphic" in2="effect1_dropShadow" result="shape"/>
</filter>
<linearGradient id="paint0_linear" x1="348" y1="86.5263" x2="-9.14146" y2="95.5692" gradientUnits="userSpaceOnUse">
<stop stop-color="#D8D6FF"/>
<stop offset="1" stop-color="#B49CFF"/>
</linearGradient>
<linearGradient id="paint1_linear" x1="59.4372" y1="89.6167" x2="79.1692" y2="45.564" gradientUnits="userSpaceOnUse">
<stop stop-color="#FF4E64"/>
<stop offset="1" stop-color="#EB31D6"/>
</linearGradient>
</defs>
</svg>
