<svg width="521" height="100" viewBox="0 0 521 100" fill="none" xmlns="http://www.w3.org/2000/svg">
<g filter="url(#filter0_d)">
<path d="M484.286 62.0429C484.65 61.1476 483.887 54.0601 485.305 53.8655C486.948 53.6398 487.598 61.0002 488.558 61.6514C489.379 62.2089 492.801 61.6824 492.98 62.9826C493.135 64.1172 489.786 64.4884 489.057 65.2906C488.261 66.1672 489.554 71.5286 487.763 71.7745C485.662 72.063 486.052 67.1032 484.579 66.092C483.254 65.1821 480.548 66.0053 480.37 64.7136C480.17 63.2563 483.84 63.1386 484.286 62.0429Z" fill="white"/>
</g>
<g filter="url(#filter1_d)">
<path d="M23.2861 27.0429C23.6502 26.1476 22.8867 19.0601 24.3046 18.8655C25.9482 18.6398 26.5984 26.0002 27.5578 26.6514C28.3792 27.2089 31.8012 26.6824 31.9797 27.9826C32.1355 29.1172 28.7864 29.4884 28.0574 30.2906C27.2607 31.1672 28.5539 36.5286 26.7632 36.7745C24.6617 37.063 25.0521 32.1032 23.5795 31.092C22.2543 30.1821 19.5478 31.0053 19.3704 29.7136C19.1704 28.2563 22.8405 28.1386 23.2861 27.0429Z" fill="white"/>
</g>
<path d="M38.9837 69.8139C38.9837 68.0874 40.3833 66.6878 42.1098 66.6878H44.5008H46.8917C48.6182 66.6878 50.0178 68.0874 50.0178 69.8139V88.0209C50.0178 89.7474 48.6183 91.147 46.8918 91.147H46.8916H46.8914H46.8913H46.8911H46.891H46.8908H46.8906H46.8905H46.8903H46.8902H46.89H46.8898H46.8897H46.8895H46.8894H46.8892H46.8891H46.8889H46.8887H46.8886H46.8884H46.8883H46.8881H46.8879H46.8878H46.8876H46.8875H46.8873H46.8871H46.887H46.8868H46.8867H46.8865H46.8863H46.8862H46.886H46.8859H46.8857H46.8856H46.8854H46.8852H46.8851H46.8849H46.8848H46.8846H46.8844H46.8843H46.8841H46.884H46.8838H46.8836H46.8835H46.8833H46.8832H46.883H46.8828H46.8827H46.8825H46.8824H46.8822H46.882H46.8819H46.8817H46.8816H46.8814H46.8813H46.8811H46.8809H46.8808H46.8806H46.8805H46.8803H46.8801H46.88H46.8798H46.8797H46.8795H46.8793H46.8792H46.879H46.8789H46.8787H46.8785H46.8784H46.8782H46.8781H46.8779H46.8778H46.8776H46.8774H46.8773H46.8771H46.877H46.8768H46.8766H46.8765H46.8763H46.8762H46.876H46.8758H46.8757H46.8755H46.8754H46.8752H46.875H46.8749H46.8747H46.8746H46.8744H46.8743H46.8741H46.8739H46.8738H46.8736H46.8735H46.8733H46.8731H46.873H46.8728H46.8727H46.8725H46.8723H46.8722H46.872H46.8719H46.8717H46.8715H46.8714H46.8712H46.8711H46.8709H46.8708H46.8706H46.8704H46.8703H46.8701H46.87H46.8698H46.8696H46.8695H46.8693H46.8692H46.869H46.8688H46.8687H46.8685H46.8684H46.8682H46.868H46.8679H46.8677H46.8676H46.8674H46.8673H46.8671H46.8669H46.8668H46.8666H46.8665H46.8663H46.8661H46.866H46.8658H46.8657H46.8655H46.8653H46.8652H46.865H46.8649H46.8647H46.8645H46.8644H46.8642H46.8641H46.8639H46.8637H46.8636H46.8634H46.8633H46.8631H46.863H46.8628H46.8626H46.8625H46.8623H46.8622H46.862H46.8618H46.8617H46.8615H46.8614H46.8612H46.861H46.8609H46.8607H46.8606H46.8604H46.8602H46.8601H46.8599H46.8598H46.8596H46.8595H46.8593H46.8591H46.859H46.8588H46.8587H46.8585H46.8583H46.8582H46.858H46.8579H46.8577H46.8575H46.8574H46.8572H46.8571H46.8569H46.8567H46.8566H46.8564H46.8563H46.8561H46.856H46.8558H46.8556H46.8555H46.8553H46.8552H46.855H46.8548H46.8547H46.8545H46.8544H46.8542H46.854H46.8539H46.8537H46.8536H46.8534H46.8532H46.8531H46.8529H46.8528H46.8526H46.8524H46.8523H46.8521H46.852H46.8518H46.8517H46.8515H46.8513H46.8512H46.851H46.8509H46.8507H46.8505H46.8504H46.8502H46.8501H46.8499H46.8497H46.8496H46.8494H46.8493H46.8491H46.8489H46.8488H46.8486H46.8485H46.8483H46.8482H46.848H46.8478H46.8477H46.8475H46.8474H46.8472H46.847H46.8469H46.8467H46.8466H46.8464H46.8462H46.8461H46.8459H46.8458H46.8456H46.8454H46.8453H46.8451H46.845H46.8448H46.8446H46.8445H46.8443H46.8442H46.844H46.8439H46.8437H46.8435H46.8434H46.8432H46.8431H46.8429H46.8427H46.8426H46.8424H46.8423H46.8421H46.8419H46.8418H46.8416H46.8415H46.8413H46.8411H46.841H46.8408H46.8407H46.8405H46.8404H46.8402H46.84H46.8399H46.8397H46.8396H46.8394H46.8392H46.8391H46.8389H46.8388H46.8386H46.8384H46.8383H46.8381H46.838H46.8378H46.8376H46.8375H46.8373H46.8372H46.837H46.8368H46.8367H46.8365H46.8364H46.8362H46.8361H46.8359H46.8357H46.8356H46.8354H46.8353H46.8351H46.8349H46.8348H46.8346H46.8345H46.8343H46.8341H46.834H46.8338H46.8337H46.8335H46.8333H46.8332H46.833H46.8329H46.8327H46.8326H46.8324H46.8322H46.8321H46.8319H46.8318H46.8316H46.8314H46.8313H46.8311H46.831H46.8308H46.8306H46.8305H46.8303H46.8302H46.83H46.8298H46.8297H46.8295H46.8294H46.8292H46.829H46.8289H46.8287H46.8286H46.8284H46.8283H46.8281H46.8279H46.8278H46.8276H46.8275H46.8273H46.8271H46.827H46.8268H46.8267H46.8265H46.8263H46.8262H46.826H46.8259H46.8257H46.8255H46.8254H46.8252H46.8251H46.8249H46.8247H46.8246H46.8244H46.8243H46.8241H46.824H46.8238H46.8236H46.8235H46.8233H46.8232H46.823H46.8228H46.8227H46.8225H46.8224H46.8222H46.822H46.8219H46.8217H46.8216H46.8214H46.8212H46.8211H46.8209H46.8208H46.8206H46.8204H46.8203H46.8201H46.82H46.8198H46.8197H46.8195H46.8193H46.8192H46.819H46.8189H46.8187H46.8185H46.8184H46.8182H46.8181H46.8179H46.8177H46.8176H46.8174H46.8173H46.8171H46.8169H46.8168H46.8166H46.8165H46.8163H46.8162H46.816H46.8158H46.8157H46.8155H46.8154H46.8152H46.815H46.8149H46.8147H46.8146H46.8144H46.8142H46.8141H46.8139H46.8138H46.8136H46.8134H46.8133H46.8131H46.813H46.8128H46.8126H46.8125H46.8123H46.8122H46.812H46.8119H46.8117H46.8115H46.8114H46.8112H46.8111H46.8109H46.8107H46.8106H46.8104H46.8103H46.8056H46.8009H46.7963H46.7916H46.787H46.7824H46.7778H46.7732H46.7686H46.7641H46.7596H46.755H46.7505H46.746H46.7416H46.7371H46.7326H46.7282H46.7238H46.7193H46.715H46.7106H46.7062H46.7018H46.6975H46.6931H46.6888H46.6845H46.6802H46.6759H46.6717H46.6674H46.6632H46.6589H46.6547H46.6505H46.6463H46.6421H46.6379H46.6338H46.6296H46.6255H46.6214H46.6172H46.6131H46.609H46.605H46.6009H46.5968H46.5928H46.5887H46.5847H46.5807H46.5767H46.5727H46.5687H46.5647H46.5608H46.5568H46.5529H46.5489H46.545H46.5411H46.5372H46.5333H46.5294H46.5255H46.5217H46.5178H46.514H46.5101H46.5063H46.5025H46.4986H46.4948H46.491H46.4873H46.4835H46.4797H46.476H46.4722H46.4685H46.4647H46.461H46.4573H46.4536H46.4499H46.4462H46.4425H46.4388H46.4351H46.4314H46.4278H46.4241H46.4205H46.4168H46.4132H46.4096H46.406H46.4024H46.3988H46.3952H46.3916H46.388H46.3844H46.3808H46.3773H46.3737H46.3701H46.3666H46.3631H46.3595H46.356H46.3525H46.3489H46.3454H46.3419H46.3384H46.3349H46.3314H46.3279H46.3244H46.321H46.3175H46.314H46.3106H46.3071H46.3036H46.3002H46.2967H46.2933H46.2898H46.2864H46.283H46.2795H46.2761H46.2727H46.2693H46.2659H46.2625H46.259H46.2556H46.2522H46.2488H46.2454H46.2421H46.2387H46.2353H46.2319H46.2285H46.2251H46.2217H46.2184H46.215H46.2116H46.2083H46.2049H46.2015H46.1982H46.1948H46.1914H46.1881H46.1847H46.1814H46.178H46.1747H46.1713H46.168H46.1646H46.1613H46.1579H46.1546H46.1512H46.1479H46.1445H46.1412H46.1378H46.1345H46.1311H46.1278H46.1244H46.1211H46.1177H46.1144H46.1111H46.1077H46.1044H46.101H46.0977H46.0943H46.091H46.0876H46.0843H46.0809H46.0775H46.0742H46.0708H46.0675H46.0641H46.0607H46.0574H46.054H46.0506H46.0473H46.0439H46.0405H46.0371H46.0338H46.0304H46.027H46.0236H46.0202H46.0168H46.0134H46.01H46.0066H46.0032H45.9998H45.9964H45.993H45.9896H45.9861H45.9827H45.9793H45.9759H45.9724H45.969H45.9655H45.9621H45.9586H45.9552H45.9517H45.9483H45.9448H45.9413H45.9378H45.9343H45.9309H45.9274H45.9239H45.9204H45.9168H45.9133H45.9098H45.9063H45.9028H45.8992H45.8957H45.8921H45.8886H45.885H45.8814H45.8779H45.8743H45.8707H45.8671H45.8635H45.8599H45.8563H45.8527H45.8491H45.8454H45.8418H45.8381H45.8345H45.8308H45.8272H45.8235H45.8198H45.8161H45.8124H45.8087H45.805H45.8013H45.7976H45.7938H45.7901H45.7863H45.7826H45.7788H45.775H45.7712H45.7674H45.7636H45.7598H45.756H45.7522H45.7483H45.7445H45.7406H45.7368H45.7329H45.729H45.7251H45.7212H45.7173H45.7133H45.7094H45.7055H45.7015H45.6975H45.6936H45.6896H45.6856H45.6816H45.6776H45.6735H45.6695H45.6655H45.6614H45.6573H45.6532H45.6491H45.645H45.6409H45.6368H45.6327H45.6285H45.6243H45.6202H45.616H45.6118H45.6076H45.6034H45.5991H45.5949H45.5906H45.5864H45.5821H45.5778H45.5735H45.5691H45.5648H45.5605H45.5561H45.5517H45.5473H45.5429H45.5385H45.5341H45.5297H45.5252H45.5207H45.5163H45.5118H45.5073H45.5027H45.4982H45.4937H45.4891H45.4845H45.4799H45.4753H45.4707H45.466H45.4614H45.4567H45.452H45.4473H45.4426H45.4379H45.4332H45.4284H45.4236H45.4188H45.414H45.4092H45.4044H45.3995H45.3947H45.3898H45.3849H45.38H45.375H45.3701H45.3651H45.3601H45.3551H45.3501H45.3451H45.34H45.335H45.3299H45.3248H45.3197H45.3145H45.3094H45.3042H45.299H45.2938H45.2886H45.2834H45.2781H45.2728H45.2675H45.2622H45.2569H45.2516H45.2462H45.2408H45.2354H45.23H45.2245H45.2191H45.2136H45.2081H45.2026H45.1971H45.1915H45.1859H45.1803H45.1747H45.1691H45.1634H45.1578H45.1521H45.1464H45.1406H45.1349H45.1291H45.1233H45.1175H45.1117H45.1058H45.0999H45.094H45.0881H45.0822H45.0762H45.0703H45.0643H45.0582H45.0522H45.0461H45.0401H45.034H45.0278H45.0217H45.0155H45.0093H45.0031H44.9969H44.9906H44.9843H44.978H44.9717H44.9654H44.959H44.9526H44.9462H44.9397H44.9333H44.9268H44.9203H44.9138H44.9072H44.9006H44.894H44.8874H44.8808H44.8741H44.8674H44.8607H44.854H44.8472H44.8404H44.8336H44.8268H44.8199H44.813H44.8061H44.7992H44.7922H44.7852H44.7782H44.7712H44.7641H44.757H44.7499H44.7428H44.7356H44.7285H44.7213H44.714H44.7068H44.6995H44.6922H44.6848H44.6775H44.6701H44.6627H44.6552H44.6477H44.6403H44.6327H44.6252H44.6176H44.61H44.6024H44.5947H44.5871H44.5793H44.5716H44.5638H44.5561H44.5482H44.5404H44.5325H44.5246H44.5167H44.5087H44.5008H44.4928H44.4848H44.4769H44.469H44.4611H44.4533H44.4454H44.4376H44.4299H44.4221H44.4144H44.4067H44.399H44.3914H44.3837H44.3761H44.3686H44.361H44.3535H44.346H44.3385H44.3311H44.3236H44.3162H44.3089H44.3015H44.2942H44.2869H44.2796H44.2724H44.2651H44.2579H44.2507H44.2436H44.2364H44.2293H44.2222H44.2152H44.2081H44.2011H44.1941H44.1871H44.1802H44.1733H44.1664H44.1595H44.1526H44.1458H44.139H44.1322H44.1254H44.1187H44.1119H44.1052H44.0986H44.0919H44.0853H44.0787H44.0721H44.0655H44.0589H44.0524H44.0459H44.0394H44.033H44.0265H44.0201H44.0137H44.0073H44.001H43.9946H43.9883H43.982H43.9757H43.9695H43.9632H43.957H43.9508H43.9447H43.9385H43.9324H43.9262H43.9202H43.9141H43.908H43.902H43.896H43.89H43.884H43.878H43.8721H43.8662H43.8603H43.8544H43.8485H43.8427H43.8369H43.8311H43.8253H43.8195H43.8137H43.808H43.8023H43.7966H43.7909H43.7853H43.7796H43.774H43.7684H43.7628H43.7572H43.7517H43.7461H43.7406H43.7351H43.7296H43.7241H43.7187H43.7133H43.7078H43.7024H43.6971H43.6917H43.6863H43.681H43.6757H43.6704H43.6651H43.6598H43.6546H43.6494H43.6441H43.6389H43.6337H43.6286H43.6234H43.6183H43.6131H43.608H43.6029H43.5979H43.5928H43.5877H43.5827H43.5777H43.5727H43.5677H43.5627H43.5577H43.5528H43.5479H43.5429H43.538H43.5332H43.5283H43.5234H43.5186H43.5137H43.5089H43.5041H43.4993H43.4945H43.4898H43.485H43.4803H43.4756H43.4708H43.4661H43.4615H43.4568H43.4521H43.4475H43.4428H43.4382H43.4336H43.429H43.4244H43.4199H43.4153H43.4108H43.4062H43.4017H43.3972H43.3927H43.3882H43.3837H43.3793H43.3748H43.3704H43.3659H43.3615H43.3571H43.3527H43.3483H43.3439H43.3396H43.3352H43.3309H43.3265H43.3222H43.3179H43.3136H43.3093H43.305H43.3008H43.2965H43.2923H43.288H43.2838H43.2796H43.2754H43.2712H43.267H43.2628H43.2586H43.2545H43.2503H43.2462H43.242H43.2379H43.2338H43.2297H43.2256H43.2215H43.2174H43.2133H43.2093H43.2052H43.2011H43.1971H43.1931H43.1891H43.185H43.181H43.177H43.173H43.169H43.1651H43.1611H43.1571H43.1532H43.1492H43.1453H43.1414H43.1374H43.1335H43.1296H43.1257H43.1218H43.1179H43.114H43.1101H43.1063H43.1024H43.0985H43.0947H43.0908H43.087H43.0831H43.0793H43.0755H43.0717H43.0678H43.064H43.0602H43.0564H43.0526H43.0489H43.0451H43.0413H43.0375H43.0338H43.03H43.0262H43.0225H43.0187H43.015H43.0112H43.0075H43.0038H43H42.9963H42.9926H42.9889H42.9852H42.9815H42.9778H42.9741H42.9704H42.9667H42.963H42.9593H42.9556H42.9519H42.9483H42.9446H42.9409H42.9372H42.9336H42.9299H42.9263H42.9226H42.9189H42.9153H42.9116H42.908H42.9043H42.9007H42.8971H42.8934H42.8898H42.8861H42.8825H42.8789H42.8752H42.8716H42.868H42.8643H42.8607H42.8571H42.8535H42.8498H42.8462H42.8426H42.839H42.8354H42.8317H42.8281H42.8245H42.8209H42.8173H42.8136H42.81H42.8064H42.8028H42.7992H42.7955H42.7919H42.7883H42.7847H42.7811H42.7774H42.7738H42.7702H42.7666H42.7629H42.7593H42.7557H42.752H42.7484H42.7448H42.7412H42.7375H42.7339H42.7302H42.7266H42.723H42.7193H42.7157H42.712H42.7084H42.7047H42.7011H42.6974H42.6938H42.6901H42.6864H42.6828H42.6791H42.6754H42.6717H42.6681H42.6644H42.6607H42.657H42.6533H42.6496H42.6459H42.6422H42.6385H42.6348H42.6311H42.6274H42.6237H42.6199H42.6162H42.6125H42.6087H42.605H42.6012H42.5975H42.5937H42.59H42.5862H42.5824H42.5787H42.5749H42.5711H42.5673H42.5635H42.5597H42.5559H42.5521H42.5483H42.5445H42.5406H42.5368H42.533H42.5291H42.5253H42.5214H42.5175H42.5137H42.5098H42.5059H42.502H42.4981H42.4942H42.4903H42.4864H42.4825H42.4785H42.4746H42.4706H42.4667H42.4627H42.4588H42.4548H42.4508H42.4468H42.4428H42.4388H42.4348H42.4308H42.4268H42.4227H42.4187H42.4146H42.4106H42.4065H42.4024H42.3983H42.3942H42.3901H42.386H42.3819H42.3778H42.3736H42.3695H42.3653H42.3612H42.357H42.3528H42.3486H42.3444H42.3402H42.336H42.3317H42.3275H42.3232H42.319H42.3147H42.3104H42.3061H42.3018H42.2975H42.2932H42.2888H42.2845H42.2801H42.2757H42.2714H42.267H42.2626H42.2582H42.2537H42.2493H42.2449H42.2404H42.2359H42.2314H42.2269H42.2224H42.2179H42.2134H42.2089H42.2043H42.1997H42.1952H42.1906H42.186H42.1813H42.1767H42.1721H42.1674H42.1628H42.1581H42.1534H42.1487H42.144H42.1392H42.1345H42.1297H42.125H42.1202H42.1154H42.1106H42.1057H42.1009H42.096H42.0912H42.0863C40.3728 91.147 38.9837 89.7579 38.9837 88.0444V69.8139Z" fill="url(#paint0_linear)" stroke="#2F2350" stroke-width="1.56308"/>
<path d="M19.8438 55.625C19.8438 53.761 21.3548 52.25 23.2188 52.25H44.5H65.7812C67.6452 52.25 69.1562 53.761 69.1562 55.625V78.0015C69.1562 79.8663 67.6476 81.3765 65.7845 81.3765H65.7664H65.7484H65.7303H65.7121H65.694H65.6758H65.6576H65.6393H65.6211H65.6027H65.5844H65.566H65.5477H65.5292H65.5108H65.4923H65.4738H65.4552H65.4367H65.4181H65.3994H65.3808H65.3621H65.3434H65.3246H65.3059H65.2871H65.2682H65.2494H65.2305H65.2116H65.1926H65.1736H65.1546H65.1356H65.1165H65.0975H65.0783H65.0592H65.04H65.0208H65.0016H64.9823H64.9631H64.9438H64.9244H64.9051H64.8857H64.8662H64.8468H64.8273H64.8078H64.7883H64.7687H64.7491H64.7295H64.7099H64.6902H64.6705H64.6508H64.6311H64.6113H64.5915H64.5717H64.5518H64.5319H64.512H64.4921H64.4721H64.4521H64.4321H64.4121H64.392H64.3719H64.3518H64.3317H64.3115H64.2913H64.2711H64.2508H64.2306H64.2103H64.19H64.1696H64.1492H64.1288H64.1084H64.088H64.0675H64.047H64.0265H64.0059H63.9853H63.9647H63.9441H63.9234H63.9028H63.8821H63.8613H63.8406H63.8198H63.799H63.7782H63.7573H63.7365H63.7156H63.6947H63.6737H63.6527H63.6317H63.6107H63.5897H63.5686H63.5475H63.5264H63.5053H63.4841H63.4629H63.4417H63.4205H63.3992H63.378H63.3567H63.3353H63.314H63.2926H63.2712H63.2498H63.2284H63.2069H63.1854H63.1639H63.1424H63.1208H63.0992H63.0776H63.056H63.0344H63.0127H62.991H62.9693H62.9476H62.9258H62.904H62.8822H62.8604H62.8385H62.8167H62.7948H62.7729H62.7509H62.729H62.707H62.685H62.663H62.6409H62.6189H62.5968H62.5747H62.5526H62.5304H62.5082H62.486H62.4638H62.4416H62.4193H62.3971H62.3748H62.3525H62.3301H62.3078H62.2854H62.263H62.2406H62.2181H62.1957H62.1732H62.1507H62.1282H62.1056H62.0831H62.0605H62.0379H62.0152H61.9926H61.9699H61.9473H61.9246H61.9018H61.8791H61.8563H61.8336H61.8108H61.7879H61.7651H61.7422H61.7194H61.6965H61.6736H61.6506H61.6277H61.6047H61.5817H61.5587H61.5357H61.5126H61.4896H61.4665H61.4434H61.4202H61.3971H61.3739H61.3508H61.3276H61.3044H61.2811H61.2579H61.2346H61.2113H61.188H61.1647H61.1414H61.118H61.0946H61.0712H61.0478H61.0244H61.0009H60.9775H60.954H60.9305H60.907H60.8835H60.8599H60.8363H60.8128H60.7892H60.7655H60.7419H60.7183H60.6946H60.6709H60.6472H60.6235H60.5998H60.576H60.5522H60.5285H60.5047H60.4808H60.457H60.4332H60.4093H60.3854H60.3615H60.3376H60.3137H60.2897H60.2658H60.2418H60.2178H60.1938H60.1698H60.1457H60.1217H60.0976H60.0735H60.0494H60.0253H60.0012H59.977H59.9529H59.9287H59.9045H59.8803H59.8561H59.8318H59.8076H59.7833H59.7591H59.7348H59.7105H59.6861H59.6618H59.6374H59.6131H59.5887H59.5643H59.5399H59.5155H59.491H59.4666H59.4421H59.4177H59.3932H59.3687H59.3441H59.3196H59.2951H59.2705H59.2459H59.2214H59.1968H59.1721H59.1475H59.1229H59.0982H59.0736H59.0489H59.0242H58.9995H58.9748H58.9501H58.9253H58.9006H58.8758H58.851H58.8262H58.8014H58.7766H58.7518H58.7269H58.7021H58.6772H58.6523H58.6274H58.6025H58.5776H58.5527H58.5278H58.5028H58.4779H58.4529H58.4279H58.4029H58.3779H58.3529H58.3279H58.3028H58.2778H58.2527H58.2276H58.2025H58.1774H58.1523H58.1272H58.1021H58.077H58.0518H58.0266H58.0015H57.9763H57.9511H57.9259H57.9007H57.8755H57.8502H57.825H57.7997H57.7745H57.7492H57.7239H57.6986H57.6733H57.648H57.6227H57.5973H57.572H57.5466H57.5213H57.4959H57.4705H57.4451H57.4197H57.3943H57.3689H57.3435H57.318H57.2926H57.2671H57.2417H57.2162H57.1907H57.1652H57.1397H57.1142H57.0887H57.0632H57.0376H57.0121H56.9865H56.961H56.9354H56.9098H56.8843H56.8587H56.8331H56.8075H56.7818H56.7562H56.7306H56.7049H56.6793H56.6536H56.628H56.6023H56.5766H56.551H56.5253H56.4996H56.4739H56.4481H56.4224H56.3967H56.371H56.3452H56.3195H56.2937H56.268H56.2422H56.2164H56.1906H56.1648H56.139H56.1132H56.0874H56.0616H56.0358H56.01H55.9841H55.9583H55.9324H55.9066H55.8807H55.8549H55.829H55.8031H55.7772H55.7514H55.7255H55.6996H55.6737H55.6478H55.6218H55.5959H55.57H55.5441H55.5181H55.4922H55.4662H55.4403H55.4143H55.3884H55.3624H55.3364H55.3105H55.2845H55.2585H55.2325H55.2065H55.1805H55.1545H55.1285H55.1025H55.0765H55.0505H55.0244H54.9984H54.9724H54.9463H54.9203H54.8943H54.8682H54.8422H54.8161H54.79H54.764H54.7379H54.7119H54.6858H54.6597H54.6336H54.6075H54.5815H54.5554H54.5293H54.5032H54.4771H54.451H54.4249H54.3988H54.3727H54.3466H54.3204H54.2943H54.2682H54.2421H54.216H54.1898H54.1637H54.1376H54.1114H54.0853H54.0592H54.033H54.0069H53.9807H53.9546H53.9285H53.9023H53.8762H53.85C52.1419 81.3765 50.9974 82.2448 49.9815 83.0154C49.8301 83.1303 49.6816 83.243 49.5344 83.3503C48.3829 84.1903 47.0268 85 44.5 85C41.9686 85 40.5347 84.187 39.2822 83.3345C39.1319 83.2322 38.9804 83.1258 38.8267 83.0178C37.7177 82.2386 36.4909 81.3765 34.725 81.3765H34.6997H34.6744H34.6492H34.6239H34.5986H34.5733H34.5481H34.5228H34.4975H34.4723H34.447H34.4217H34.3965H34.3712H34.346H34.3207H34.2955H34.2703H34.245H34.2198H34.1946H34.1693H34.1441H34.1189H34.0937H34.0685H34.0433H34.0181H33.9929H33.9677H33.9425H33.9173H33.8921H33.8669H33.8418H33.8166H33.7914H33.7662H33.7411H33.7159H33.6908H33.6656H33.6405H33.6154H33.5902H33.5651H33.54H33.5148H33.4897H33.4646H33.4395H33.4144H33.3893H33.3642H33.3391H33.3141H33.289H33.2639H33.2389H33.2138H33.1887H33.1637H33.1387H33.1136H33.0886H33.0636H33.0385H33.0135H32.9885H32.9635H32.9385H32.9135H32.8885H32.8636H32.8386H32.8136H32.7887H32.7637H32.7387H32.7138H32.6889H32.6639H32.639H32.6141H32.5892H32.5643H32.5394H32.5145H32.4896H32.4647H32.4399H32.415H32.3902H32.3653H32.3405H32.3156H32.2908H32.266H32.2412H32.2164H32.1916H32.1668H32.142H32.1172H32.0924H32.0677H32.0429H32.0182H31.9935H31.9687H31.944H31.9193H31.8946H31.8699H31.8452H31.8205H31.7958H31.7712H31.7465H31.7219H31.6972H31.6726H31.648H31.6234H31.5988H31.5742H31.5496H31.525H31.5004H31.4759H31.4513H31.4268H31.4022H31.3777H31.3532H31.3287H31.3042H31.2797H31.2552H31.2308H31.2063H31.1818H31.1574H31.133H31.1085H31.0841H31.0597H31.0353H31.0109H30.9866H30.9622H30.9379H30.9135H30.8892H30.8649H30.8405H30.8162H30.7919H30.7677H30.7434H30.7191H30.6949H30.6706H30.6464H30.6222H30.598H30.5738H30.5496H30.5254H30.5013H30.4771H30.453H30.4288H30.4047H30.3806H30.3565H30.3324H30.3083H30.2843H30.2602H30.2362H30.2121H30.1881H30.1641H30.1401H30.1161H30.0922H30.0682H30.0442H30.0203H29.9964H29.9725H29.9486H29.9247H29.9008H29.8769H29.8531H29.8292H29.8054H29.7816H29.7578H29.734H29.7102H29.6865H29.6627H29.639H29.6152H29.5915H29.5678H29.5441H29.5205H29.4968H29.4732H29.4495H29.4259H29.4023H29.3787H29.3551H29.3315H29.308H29.2844H29.2609H29.2374H29.2139H29.1904H29.1669H29.1435H29.12H29.0966H29.0732H29.0498H29.0264H29.003H28.9796H28.9563H28.933H28.9096H28.8863H28.863H28.8398H28.8165H28.7932H28.77H28.7468H28.7236H28.7004H28.6772H28.6541H28.6309H28.6078H28.5847H28.5616H28.5385H28.5154H28.4924H28.4693H28.4463H28.4233H28.4003H28.3773H28.3544H28.3314H28.3085H28.2856H28.2627H28.2398H28.2169H28.1941H28.1712H28.1484H28.1256H28.1028H28.08H28.0573H28.0346H28.0118H27.9891H27.9664H27.9438H27.9211H27.8985H27.8758H27.8532H27.8306H27.8081H27.7855H27.763H27.7404H27.7179H27.6954H27.673H27.6505H27.6281H27.6057H27.5832H27.5609H27.5385H27.5161H27.4938H27.4715H27.4492H27.4269H27.4046H27.3824H27.3602H27.338H27.3158H27.2936H27.2714H27.2493H27.2272H27.2051H27.183H27.1609H27.1389H27.1168H27.0948H27.0728H27.0508H27.0289H27.0069H26.985H26.9631H26.9412H26.9194H26.8975H26.8757H26.8539H26.8321H26.8103H26.7886H26.7669H26.7452H26.7235H26.7018H26.6801H26.6585H26.6369H26.6153H26.5937H26.5722H26.5506H26.5291H26.5076H26.4861H26.4647H26.4432H26.4218H26.4004H26.379H26.3577H26.3363H26.315H26.2937H26.2724H26.2512H26.23H26.2087H26.1875H26.1664H26.1452H26.1241H26.103H26.0819H26.0608H26.0398H26.0187H25.9977H25.9767H25.9558H25.9348H25.9139H25.893H25.8721H25.8512H25.8304H25.8096H25.7888H25.768H25.7473H25.7265H25.7058H25.6851H25.6645H25.6438H25.6232H25.6026H25.582H25.5615H25.5409H25.5204H25.4999H25.4794H25.459H25.4386H25.4182H25.3978H25.3774H25.3571H25.3368H25.3165H25.2962H25.276H25.2558H25.2356H25.2154H25.1952H25.1751H25.155H25.1349H25.1149H25.0948H25.0748H25.0548H25.0348H25.0149H24.995H24.9751H24.9552H24.9354H24.9155H24.8957H24.876H24.8562H24.8365H24.8168H24.7971H24.7774H24.7578H24.7382H24.7186H24.699H24.6795H24.66H24.6405H24.621H24.6016H24.5822H24.5628H24.5434H24.5241H24.5047H24.4854H24.4662H24.4469H24.4277H24.4085H24.3893H24.3702H24.3511H24.332H24.3129H24.2939H24.2749H24.2559H24.2369H24.218H24.199H24.1802H24.1613H24.1424H24.1236H24.1048H24.0861H24.0673H24.0486H24.03H24.0113H23.9927H23.9741H23.9555H23.9369H23.9184H23.8999H23.8814H23.863H23.8445H23.8262H23.8078H23.7894H23.7711H23.7528H23.7346H23.7163H23.6981H23.68H23.6618H23.6437H23.6256H23.6075H23.5895H23.5714H23.5534H23.5355H23.5175H23.4996H23.4818H23.4639H23.4461H23.4283H23.4105H23.3928H23.375H23.3574H23.3397H23.3221H23.3045H23.2869H23.2693H23.2518H23.2343H23.2169C21.3534 81.3765 19.8438 79.866 19.8438 78.0015V55.625Z" fill="#ADB6B6" stroke="#2F2350" stroke-width="1.6875"/>
<path d="M48.7566 41.2959C48.7566 43.785 46.8214 45.748 44.5004 45.748C42.1794 45.748 40.2441 43.785 40.2441 41.2959C40.2441 38.8068 42.1794 36.8438 44.5004 36.8438C46.8214 36.8438 48.7566 38.8068 48.7566 41.2959Z" fill="url(#paint1_linear)" stroke="#2F2350" stroke-width="1.6875"/>
<line x1="44.5059" y1="51.4063" x2="44.5059" y2="45.9688" stroke="#2F2350" stroke-width="1.6875"/>
<path d="M24.0996 57.5625C24.0996 56.1645 25.2329 55.0312 26.6309 55.0312H68.2996V77.875C68.2996 79.273 67.1663 80.4062 65.7684 80.4062H52.6808C52.3305 80.4062 51.984 80.3335 51.6633 80.1927L45.882 77.6547C45.2689 77.3855 44.574 77.3703 43.9497 77.6123L36.9507 80.3253C36.6529 80.4407 36.336 80.4988 36.0167 80.4963L24.0996 80.4062V57.5625Z" fill="#99A7A7"/>
<path d="M65.0859 66.3594C65.0859 71.2571 61.1767 75.2105 56.3752 75.2105C51.5737 75.2105 47.6645 71.2571 47.6645 66.3594C47.6645 61.4617 51.5737 57.5082 56.3752 57.5082C61.1767 57.5082 65.0859 61.4617 65.0859 66.3594Z" fill="#ADB6B6" stroke="black" stroke-width="1.32891"/>
<path d="M61.1133 66.3595C61.1133 69.0359 58.9791 71.183 56.3741 71.183C53.7691 71.183 51.635 69.0359 51.635 66.3595C51.635 63.6831 53.7691 61.5361 56.3741 61.5361C58.9791 61.5361 61.1133 63.6831 61.1133 66.3595Z" fill="#2F2350" stroke="#9BA2A2" stroke-width="1.77187"/>
<ellipse cx="54.9688" cy="64.9322" rx="1.40628" ry="1.42734" fill="#F84A96"/>
<ellipse opacity="0.5" cx="58.7178" cy="67.7866" rx="0.468759" ry="0.47578" fill="#F84A96"/>
<path d="M41.3355 66.3594C41.3355 71.2571 37.4264 75.2105 32.625 75.2105C27.8236 75.2105 23.9145 71.2571 23.9145 66.3594C23.9145 61.4616 27.8236 57.5082 32.625 57.5082C37.4264 57.5082 41.3355 61.4616 41.3355 66.3594Z" fill="#ADB6B6" stroke="black" stroke-width="1.32891"/>
<path d="M37.3631 66.3595C37.3631 69.0359 35.2289 71.183 32.624 71.183C30.0191 71.183 27.885 69.0359 27.885 66.3595C27.885 63.6831 30.0191 61.5361 32.624 61.5361C35.2289 61.5361 37.3631 63.6831 37.3631 66.3595Z" fill="#2F2350" stroke="#9BA2A2" stroke-width="1.77187"/>
<ellipse cx="31.2188" cy="64.9322" rx="1.40625" ry="1.42734" fill="#F84A96"/>
<ellipse opacity="0.5" cx="34.9678" cy="67.7866" rx="0.468749" ry="0.47578" fill="#F84A96"/>
<path d="M37.6593 79.972C37.8209 79.6997 38.0708 79.4908 38.3673 79.3798L43.8402 77.3319C44.4122 77.1179 45.0423 77.1179 45.6144 77.3319L49.7728 78.888C50.0435 78.9893 50.2948 79.1362 50.5159 79.3223L50.7502 79.5196C51.5111 80.1601 51.7037 81.1605 50.9277 81.7825C50.4564 82.1602 49.7817 82.6133 48.8182 83.1231C45.7127 84.766 42.5824 84.0972 41.2188 83.587C40.3943 83.2785 39.0245 82.4273 38.0703 81.8025C37.4613 81.4037 37.2875 80.5979 37.6593 79.972Z" fill="#6B6B6B"/>
<path d="M36 81.5C38 81.5 40.6151 77.6875 44.5004 77.6875C48.3857 77.6875 50.45 81.5 53 81.5" stroke="#2F2350" stroke-width="1.6875"/>
<line x1="41.9502" y1="81.7969" x2="47.0502" y2="81.7969" stroke="black" stroke-width="0.84375"/>
<path d="M132.496 65.0457L144.423 75.1526L129.707 80.4282L132.496 65.0457Z" fill="#FA4787"/>
<path d="M264.325 64.2157L263.652 70.5183L258.485 66.6806L264.325 64.2157Z" fill="#FA4787"/>
<path d="M250 89.5C250 83.2674 247.524 77.2901 243.117 72.883C238.71 68.4759 232.733 66 226.5 66C220.267 66 214.29 68.4759 209.883 72.883C205.476 77.2901 203 83.2674 203 89.5L226.5 89.5H250Z" fill="url(#paint2_linear)"/>
<g filter="url(#filter2_d)">
<path d="M250 83C270 74.8333 286.665 60.3157 313 58.5C342.969 56.4338 353.333 71 377 78C400.667 85 416.673 61.9429 436.5 65.5C453.984 68.6368 474 85.5 474 89.5" stroke="white" stroke-width="0.5"/>
</g>
<g filter="url(#filter3_d)">
<path d="M250 85.6987C270 77.5321 286.665 63.0144 313 61.1987C342.969 59.1326 353.333 73.6987 377 80.6987C400.667 87.6987 416.673 64.4429 436.5 68C453.984 71.1368 471.5 86.5 471.5 89.5" stroke="white" stroke-width="0.5"/>
</g>
<circle cx="425.5" cy="76.5" r="1.5" fill="#FCE389"/>
<defs>
<filter id="filter0_d" x="461.558" y="35.0557" width="58.7597" height="64.0634" filterUnits="userSpaceOnUse" color-interpolation-filters="sRGB">
<feFlood flood-opacity="0" result="BackgroundImageFix"/>
<feColorMatrix in="SourceAlpha" type="matrix" values="0 0 0 0 0 0 0 0 0 0 0 0 0 0 0 0 0 0 127 0" result="hardAlpha"/>
<feOffset dx="4.26401" dy="4.26401"/>
<feGaussianBlur stdDeviation="11.5343"/>
<feColorMatrix type="matrix" values="0 0 0 0 1 0 0 0 0 1 0 0 0 0 1 0 0 0 0.6 0"/>
<feBlend mode="normal" in2="BackgroundImageFix" result="effect1_dropShadow"/>
<feBlend mode="normal" in="SourceGraphic" in2="effect1_dropShadow" result="shape"/>
</filter>
<filter id="filter1_d" x="0.55768" y="0.0557265" width="58.7597" height="64.0634" filterUnits="userSpaceOnUse" color-interpolation-filters="sRGB">
<feFlood flood-opacity="0" result="BackgroundImageFix"/>
<feColorMatrix in="SourceAlpha" type="matrix" values="0 0 0 0 0 0 0 0 0 0 0 0 0 0 0 0 0 0 127 0" result="hardAlpha"/>
<feOffset dx="4.26401" dy="4.26401"/>
<feGaussianBlur stdDeviation="11.5343"/>
<feColorMatrix type="matrix" values="0 0 0 0 1 0 0 0 0 1 0 0 0 0 1 0 0 0 0.6 0"/>
<feBlend mode="normal" in2="BackgroundImageFix" result="effect1_dropShadow"/>
<feBlend mode="normal" in="SourceGraphic" in2="effect1_dropShadow" result="shape"/>
</filter>
<filter id="filter2_d" x="246.905" y="55.0513" width="234.345" height="41.4487" filterUnits="userSpaceOnUse" color-interpolation-filters="sRGB">
<feFlood flood-opacity="0" result="BackgroundImageFix"/>
<feColorMatrix in="SourceAlpha" type="matrix" values="0 0 0 0 0 0 0 0 0 0 0 0 0 0 0 0 0 0 127 0" result="hardAlpha"/>
<feOffset dx="2" dy="2"/>
<feGaussianBlur stdDeviation="2.5"/>
<feColorMatrix type="matrix" values="0 0 0 0 1 0 0 0 0 1 0 0 0 0 1 0 0 0 0.3 0"/>
<feBlend mode="normal" in2="BackgroundImageFix" result="effect1_dropShadow"/>
<feBlend mode="normal" in="SourceGraphic" in2="effect1_dropShadow" result="shape"/>
</filter>
<filter id="filter3_d" x="246.905" y="57.75" width="231.845" height="38.75" filterUnits="userSpaceOnUse" color-interpolation-filters="sRGB">
<feFlood flood-opacity="0" result="BackgroundImageFix"/>
<feColorMatrix in="SourceAlpha" type="matrix" values="0 0 0 0 0 0 0 0 0 0 0 0 0 0 0 0 0 0 127 0" result="hardAlpha"/>
<feOffset dx="2" dy="2"/>
<feGaussianBlur stdDeviation="2.5"/>
<feColorMatrix type="matrix" values="0 0 0 0 1 0 0 0 0 1 0 0 0 0 1 0 0 0 0.3 0"/>
<feBlend mode="normal" in2="BackgroundImageFix" result="effect1_dropShadow"/>
<feBlend mode="normal" in="SourceGraphic" in2="effect1_dropShadow" result="shape"/>
</filter>
<linearGradient id="paint0_linear" x1="44.5008" y1="81.4357" x2="44.6867" y2="91.9253" gradientUnits="userSpaceOnUse">
<stop stop-color="#585858"/>
<stop offset="0.85977" stop-color="#959595"/>
</linearGradient>
<linearGradient id="paint1_linear" x1="47.9004" y1="45.0625" x2="38.8011" y2="35.6746" gradientUnits="userSpaceOnUse">
<stop offset="0.160808" stop-color="#FFE178"/>
<stop offset="1" stop-color="#FFFBEB"/>
</linearGradient>
<linearGradient id="paint2_linear" x1="235.452" y1="111.508" x2="176.143" y2="99.1984" gradientUnits="userSpaceOnUse">
<stop stop-color="#FFE480"/>
<stop offset="1" stop-color="#FFE480" stop-opacity="0"/>
</linearGradient>
</defs>
</svg>
