<svg width="373" height="81" viewBox="0 0 373 81" fill="none" xmlns="http://www.w3.org/2000/svg">
<rect y="1" width="379" height="77" fill="#D8D6FF"/>
<g filter="url(#filter0_d)">
<path d="M210.611 14.1047C210.892 13.7232 211.377 10.2664 212.074 10.3436C212.881 10.4332 212.309 14.0061 212.687 14.4302C213.01 14.7932 214.698 14.9528 214.627 15.5916C214.565 16.149 212.931 15.9244 212.488 16.218C212.005 16.5389 211.977 19.2395 211.098 19.1419C210.065 19.0274 210.844 16.719 210.266 16.0626C209.746 15.4719 208.362 15.5388 208.432 14.9043C208.512 14.1883 210.269 14.5717 210.611 14.1047Z" fill="white"/>
</g>
<g filter="url(#filter1_d)">
<path d="M97.675 27.8654C97.7904 27.5817 97.5484 25.3359 97.9977 25.2742C98.5185 25.2027 98.7245 27.535 99.0286 27.7413C99.2888 27.918 100.373 27.7511 100.43 28.1631C100.479 28.5227 99.4179 28.6403 99.1869 28.8945C98.9344 29.1722 99.3442 30.8711 98.7768 30.949C98.1109 31.0404 98.2346 29.4688 97.768 29.1484C97.3481 28.8601 96.4904 29.1209 96.4342 28.7116C96.3709 28.2499 97.5338 28.2126 97.675 27.8654Z" fill="white"/>
</g>
<g filter="url(#filter2_d)">
<path d="M334.675 63.8654C334.79 63.5817 334.548 61.3359 334.998 61.2742C335.519 61.2027 335.725 63.535 336.029 63.7413C336.289 63.918 337.373 63.7511 337.43 64.1631C337.479 64.5227 336.418 64.6403 336.187 64.8945C335.934 65.1722 336.344 66.8711 335.777 66.949C335.111 67.0404 335.235 65.4688 334.768 65.1484C334.348 64.8601 333.49 65.1209 333.434 64.7116C333.371 64.2499 334.534 64.2126 334.675 63.8654Z" fill="white"/>
</g>
<path d="M140.772 1C142.387 44.319 190.19 52.3013 190.19 78.3013" stroke="#292044" stroke-width="0.7"/>
<g filter="url(#filter3_d)">
<circle cx="157.693" cy="39.8464" r="8.78712" fill="url(#paint0_linear)"/>
</g>
<g filter="url(#filter4_d)">
<path d="M149.526 42.9815C148.171 44.7727 147.467 47.4897 147.439 48.7253C147.412 49.961 148.146 51.0296 149.192 51.2373C150.237 51.4451 151.739 51.0819 153.512 50.1929C155.284 49.3039 157.248 47.9283 159.159 46.2371C161.071 44.5458 162.847 42.6135 164.265 40.6801C165.683 38.7467 166.682 36.8975 167.137 35.3623C167.593 33.8271 167.347 32.8103 166.688 32.1818C166.03 31.5532 163.708 31.3831 162.049 32.2153L162.81 32.6583C164.202 32.2229 165.262 32.4607 165.852 33.0236C166.442 33.5864 166.539 34.6193 166.132 35.9939C165.724 37.3686 164.83 39.0244 163.56 40.7556C162.29 42.4868 160.7 44.2171 158.988 45.7315C157.276 47.2459 155.518 48.4776 153.931 49.2736C152.344 50.0696 150.999 50.3948 150.063 50.2088C149.127 50.0228 148.641 49.3338 148.666 48.2274C148.69 47.121 149.111 45.8297 150.088 44.1693L149.526 42.9815Z" fill="#FFE178"/>
</g>
<path d="M167.836 32.0357C167.836 32.4401 167.264 32.7679 166.86 32.7679C166.455 32.7679 166.372 32.2798 166.616 31.7916C166.859 31.3034 166.943 31.0593 167.348 31.0593C167.752 31.0593 167.836 31.6313 167.836 32.0357Z" fill="#B39BFF"/>
<path d="M169.789 34.093C169.789 34.4396 169.172 34.7206 168.735 34.7206C168.299 34.7206 168.208 34.3022 168.472 33.8838C168.735 33.4653 168.825 33.2561 169.262 33.2561C169.698 33.2561 169.789 33.7463 169.789 34.093Z" fill="#B39BFF"/>
<path d="M161.598 41.6596C161.598 42.0063 160.981 42.2873 160.544 42.2873C160.108 42.2873 160.017 41.8688 160.281 41.4504C160.544 41.032 160.634 40.8228 161.071 40.8228C161.507 40.8228 161.598 41.313 161.598 41.6596Z" fill="#B39BFF"/>
<path d="M153.212 50.4515C153.526 50.5979 153.52 51.2761 153.335 51.6717C153.151 52.0674 152.734 51.9724 152.466 51.5569C152.198 51.1417 152.046 50.9713 152.23 50.5756C152.415 50.18 152.897 50.3051 153.212 50.4515Z" fill="#B39BFF"/>
<g filter="url(#filter5_d)">
<path d="M153.453 29.7357C153.03 29.7109 151.339 31.1848 151.339 32.1509C151.339 31.1848 150.071 29.7357 149.226 29.7357C150.071 29.7357 150.494 29.2527 151.339 27.3206C152.185 29.2527 152.185 29.2527 153.453 29.7357Z" fill="#FFE178"/>
</g>
<g filter="url(#filter6_d)">
<path d="M146.207 50.5666C145.966 50.5511 145 51.4723 145 52.0761C145 51.4723 144.275 50.5666 143.792 50.5666C144.275 50.5666 144.517 50.2647 145 49.0571C145.483 50.2647 145.483 50.2647 146.207 50.5666Z" fill="#FFE178"/>
</g>
<g filter="url(#filter7_d)">
<path d="M168.548 56.6044C168.427 56.5951 167.944 57.1478 167.944 57.5101C167.944 57.1478 167.582 56.6044 167.34 56.6044C167.582 56.6044 167.703 56.4233 167.944 55.6987C168.186 56.4233 168.186 56.4233 168.548 56.6044Z" fill="#FFE178"/>
</g>
<defs>
<filter id="filter0_d" x="199.18" y="1.17984" width="28.8112" height="31.1259" filterUnits="userSpaceOnUse" color-interpolation-filters="sRGB">
<feFlood flood-opacity="0" result="BackgroundImageFix"/>
<feColorMatrix in="SourceAlpha" type="matrix" values="0 0 0 0 0 0 0 0 0 0 0 0 0 0 0 0 0 0 127 0" result="hardAlpha"/>
<feOffset dx="2" dy="2"/>
<feGaussianBlur stdDeviation="5.41008"/>
<feColorMatrix type="matrix" values="0 0 0 0 1 0 0 0 0 1 0 0 0 0 1 0 0 0 0.6 0"/>
<feBlend mode="normal" in2="BackgroundImageFix" result="effect1_dropShadow"/>
<feBlend mode="normal" in="SourceGraphic" in2="effect1_dropShadow" result="shape"/>
</filter>
<filter id="filter1_d" x="87.1798" y="16.1798" width="26.4148" height="27.8636" filterUnits="userSpaceOnUse" color-interpolation-filters="sRGB">
<feFlood flood-opacity="0" result="BackgroundImageFix"/>
<feColorMatrix in="SourceAlpha" type="matrix" values="0 0 0 0 0 0 0 0 0 0 0 0 0 0 0 0 0 0 127 0" result="hardAlpha"/>
<feOffset dx="2" dy="2"/>
<feGaussianBlur stdDeviation="5.41008"/>
<feColorMatrix type="matrix" values="0 0 0 0 1 0 0 0 0 1 0 0 0 0 1 0 0 0 0.6 0"/>
<feBlend mode="normal" in2="BackgroundImageFix" result="effect1_dropShadow"/>
<feBlend mode="normal" in="SourceGraphic" in2="effect1_dropShadow" result="shape"/>
</filter>
<filter id="filter2_d" x="324.18" y="52.1798" width="26.4148" height="27.8636" filterUnits="userSpaceOnUse" color-interpolation-filters="sRGB">
<feFlood flood-opacity="0" result="BackgroundImageFix"/>
<feColorMatrix in="SourceAlpha" type="matrix" values="0 0 0 0 0 0 0 0 0 0 0 0 0 0 0 0 0 0 127 0" result="hardAlpha"/>
<feOffset dx="2" dy="2"/>
<feGaussianBlur stdDeviation="5.41008"/>
<feColorMatrix type="matrix" values="0 0 0 0 1 0 0 0 0 1 0 0 0 0 1 0 0 0 0.6 0"/>
<feBlend mode="normal" in2="BackgroundImageFix" result="effect1_dropShadow"/>
<feBlend mode="normal" in="SourceGraphic" in2="effect1_dropShadow" result="shape"/>
</filter>
<filter id="filter3_d" x="144.592" y="26.7453" width="28.6175" height="28.6175" filterUnits="userSpaceOnUse" color-interpolation-filters="sRGB">
<feFlood flood-opacity="0" result="BackgroundImageFix"/>
<feColorMatrix in="SourceAlpha" type="matrix" values="0 0 0 0 0 0 0 0 0 0 0 0 0 0 0 0 0 0 127 0" result="hardAlpha"/>
<feOffset dx="1.20759" dy="1.20759"/>
<feGaussianBlur stdDeviation="2.76081"/>
<feColorMatrix type="matrix" values="0 0 0 0 1 0 0 0 0 1 0 0 0 0 1 0 0 0 0.5 0"/>
<feBlend mode="normal" in2="BackgroundImageFix" result="effect1_dropShadow"/>
<feBlend mode="normal" in="SourceGraphic" in2="effect1_dropShadow" result="shape"/>
</filter>
<filter id="filter4_d" x="140.193" y="24.404" width="38.0454" height="37.7585" filterUnits="userSpaceOnUse" color-interpolation-filters="sRGB">
<feFlood flood-opacity="0" result="BackgroundImageFix"/>
<feColorMatrix in="SourceAlpha" type="matrix" values="0 0 0 0 0 0 0 0 0 0 0 0 0 0 0 0 0 0 127 0" result="hardAlpha"/>
<feOffset dx="1.81138" dy="1.81138"/>
<feGaussianBlur stdDeviation="4.52845"/>
<feColorMatrix type="matrix" values="0 0 0 0 1 0 0 0 0 1 0 0 0 0 1 0 0 0 0.6 0"/>
<feBlend mode="normal" in2="BackgroundImageFix" result="effect1_dropShadow"/>
<feBlend mode="normal" in="SourceGraphic" in2="effect1_dropShadow" result="shape"/>
</filter>
<filter id="filter5_d" x="145" y="23.094" width="16.3024" height="16.9062" filterUnits="userSpaceOnUse" color-interpolation-filters="sRGB">
<feFlood flood-opacity="0" result="BackgroundImageFix"/>
<feColorMatrix in="SourceAlpha" type="matrix" values="0 0 0 0 0 0 0 0 0 0 0 0 0 0 0 0 0 0 127 0" result="hardAlpha"/>
<feOffset dx="1.81138" dy="1.81138"/>
<feGaussianBlur stdDeviation="3.01897"/>
<feColorMatrix type="matrix" values="0 0 0 0 1 0 0 0 0 1 0 0 0 0 1 0 0 0 0.7 0"/>
<feBlend mode="normal" in2="BackgroundImageFix" result="effect1_dropShadow"/>
<feBlend mode="normal" in="SourceGraphic" in2="effect1_dropShadow" result="shape"/>
</filter>
<filter id="filter6_d" x="139.565" y="44.8306" width="14.491" height="15.0948" filterUnits="userSpaceOnUse" color-interpolation-filters="sRGB">
<feFlood flood-opacity="0" result="BackgroundImageFix"/>
<feColorMatrix in="SourceAlpha" type="matrix" values="0 0 0 0 0 0 0 0 0 0 0 0 0 0 0 0 0 0 127 0" result="hardAlpha"/>
<feOffset dx="1.81138" dy="1.81138"/>
<feGaussianBlur stdDeviation="3.01897"/>
<feColorMatrix type="matrix" values="0 0 0 0 1 0 0 0 0 1 0 0 0 0 1 0 0 0 0.7 0"/>
<feBlend mode="normal" in2="BackgroundImageFix" result="effect1_dropShadow"/>
<feBlend mode="normal" in="SourceGraphic" in2="effect1_dropShadow" result="shape"/>
</filter>
<filter id="filter7_d" x="163.114" y="51.4722" width="13.2834" height="13.8872" filterUnits="userSpaceOnUse" color-interpolation-filters="sRGB">
<feFlood flood-opacity="0" result="BackgroundImageFix"/>
<feColorMatrix in="SourceAlpha" type="matrix" values="0 0 0 0 0 0 0 0 0 0 0 0 0 0 0 0 0 0 127 0" result="hardAlpha"/>
<feOffset dx="1.81138" dy="1.81138"/>
<feGaussianBlur stdDeviation="3.01897"/>
<feColorMatrix type="matrix" values="0 0 0 0 1 0 0 0 0 1 0 0 0 0 1 0 0 0 0.7 0"/>
<feBlend mode="normal" in2="BackgroundImageFix" result="effect1_dropShadow"/>
<feBlend mode="normal" in="SourceGraphic" in2="effect1_dropShadow" result="shape"/>
</filter>
<linearGradient id="paint0_linear" x1="154.276" y1="47.4131" x2="164.771" y2="23.9808" gradientUnits="userSpaceOnUse">
<stop stop-color="#FF4E64"/>
<stop offset="1" stop-color="#EB31D6"/>
</linearGradient>
</defs>
</svg>
