<svg width="240" height="103" viewBox="0 0 240 103" fill="none" xmlns="http://www.w3.org/2000/svg">
<path d="M25.6582 0C31.7977 57.7204 123.925 67.8563 123.925 102.5" stroke="#292044" stroke-width="0.932714"/>
<g filter="url(#filter0_d)">
<path d="M203.567 21.7513C204.164 20.9379 205.199 13.5679 206.685 13.7327C208.406 13.9236 207.186 21.541 207.991 22.4451C208.68 23.2191 212.279 23.5594 212.128 24.9212C211.996 26.1096 208.511 25.6308 207.568 26.2568C206.538 26.941 206.479 32.6987 204.603 32.4906C202.402 32.2464 204.063 27.3249 202.83 25.9255C201.721 24.6661 198.771 24.8088 198.921 23.4559C199.09 21.9295 202.836 22.7469 203.567 21.7513Z" fill="white"/>
</g>
<g filter="url(#filter1_d)">
<path d="M21.5711 47.0891C21.8171 46.4842 21.3013 41.6962 22.2592 41.5647C23.3695 41.4123 23.8087 46.3847 24.4569 46.8246C25.0118 47.2012 27.3236 46.8455 27.4442 47.7239C27.5494 48.4904 25.2869 48.7412 24.7944 49.2831C24.2562 49.8753 25.1298 53.4973 23.9201 53.6634C22.5004 53.8582 22.7641 50.5076 21.7693 49.8245C20.8741 49.2098 19.0456 49.7659 18.9258 48.8933C18.7907 47.9088 21.27 47.8293 21.5711 47.0891Z" fill="white"/>
</g>
<g filter="url(#filter2_d)">
<ellipse cx="68.3393" cy="51.0896" rx="15.4653" ry="15.4653" fill="url(#paint0_linear)"/>
</g>
<g filter="url(#filter3_d)">
<path d="M53.9657 56.6074C51.5815 59.76 50.3415 64.5419 50.2931 66.7166C50.2448 68.8913 51.5377 70.7721 53.3776 71.1377C55.2176 71.5033 57.8613 70.8641 60.9802 69.2995C64.099 67.7349 67.5556 65.3139 70.9205 62.3373C74.2853 59.3607 77.41 55.9597 79.9063 52.5569C82.4027 49.1541 84.1606 45.8996 84.9617 43.1976C85.7627 40.4957 85.331 38.7061 84.1715 37.5999C83.012 36.4937 78.9254 36.1942 76.0068 37.6589L77.3448 38.4387C79.7948 37.6723 81.6616 38.0909 82.6999 39.0815C83.7381 40.072 83.9092 41.8899 83.1919 44.3093C82.4746 46.7287 80.9006 49.6429 78.6653 52.6899C76.43 55.7368 73.632 58.7821 70.6191 61.4474C67.6062 64.1128 64.511 66.2806 61.7183 67.6816C58.9256 69.0826 56.5584 69.6549 54.9108 69.3276C53.2633 69.0002 52.408 67.7875 52.4513 65.8402C52.4945 63.8929 53.2352 61.6203 54.955 58.698L53.9657 56.6074Z" fill="#FFE178"/>
</g>
<path d="M86.1918 37.3426C86.1918 38.0544 85.1854 38.6314 84.4736 38.6314C83.7618 38.6314 83.6148 37.7722 84.0443 36.913C84.4733 36.0539 84.6209 35.6243 85.3326 35.6243C86.0444 35.6243 86.1918 36.6309 86.1918 37.3426Z" fill="#B39BFF"/>
<path d="M89.6283 40.9636C89.6283 41.5737 88.542 42.0683 87.7738 42.0683C87.0056 42.0683 86.8469 41.3318 87.3104 40.5954C87.7735 39.8589 87.9328 39.4907 88.701 39.4907C89.4692 39.4907 89.6283 40.3535 89.6283 40.9636Z" fill="#B39BFF"/>
<path d="M75.2123 54.281C75.2123 54.8911 74.126 55.3857 73.3578 55.3857C72.5895 55.3857 72.4309 54.6492 72.8944 53.9128C73.3574 53.1763 73.5168 52.8081 74.285 52.8081C75.0532 52.8081 75.2123 53.6709 75.2123 54.281Z" fill="#B39BFF"/>
<path d="M60.453 69.7547C61.006 70.0124 60.9955 71.2059 60.671 71.9023C60.3466 72.5986 59.612 72.4314 59.1403 71.7002C58.6683 70.9695 58.4018 70.6695 58.7263 69.9732C59.0507 69.2768 59.9 69.497 60.453 69.7547Z" fill="#B39BFF"/>
<g filter="url(#filter4_d)">
<path d="M60.8772 33.2949C60.1333 33.2511 57.1578 35.8453 57.1578 37.5456C57.1578 35.8453 54.9262 33.2949 53.4385 33.2949C54.9262 33.2949 55.6701 32.4448 57.1578 29.0442C58.6456 32.4448 58.6456 32.4448 60.8772 33.2949Z" fill="#FFE178"/>
</g>
<g filter="url(#filter5_d)">
<path d="M48.1247 69.9572C47.6997 69.9299 45.9994 71.5512 45.9994 72.6139C45.9994 71.5512 44.7242 69.9572 43.874 69.9572C44.7242 69.9572 45.1492 69.4259 45.9994 67.3005C46.8495 69.4259 46.8495 69.4259 48.1247 69.9572Z" fill="#FFE178"/>
</g>
<g filter="url(#filter6_d)">
<path d="M87.4437 80.584C87.2312 80.5676 86.381 81.5404 86.381 82.178C86.381 81.5404 85.7434 80.584 85.3184 80.584C85.7434 80.584 85.956 80.2652 86.381 78.99C86.8061 80.2652 86.8061 80.2652 87.4437 80.584Z" fill="#FFE178"/>
</g>
<defs>
<filter id="filter0_d" x="180.11" y="-5.07464" width="59.3545" height="64.9035" filterUnits="userSpaceOnUse" color-interpolation-filters="sRGB">
<feFlood flood-opacity="0" result="BackgroundImageFix"/>
<feColorMatrix in="SourceAlpha" type="matrix" values="0 0 0 0 0 0 0 0 0 0 0 0 0 0 0 0 0 0 127 0" result="hardAlpha"/>
<feOffset dx="4.26401" dy="4.26401"/>
<feGaussianBlur stdDeviation="11.5343"/>
<feColorMatrix type="matrix" values="0 0 0 0 1 0 0 0 0 1 0 0 0 0 1 0 0 0 0.6 0"/>
<feBlend mode="normal" in2="BackgroundImageFix" result="effect1_dropShadow"/>
<feBlend mode="normal" in="SourceGraphic" in2="effect1_dropShadow" result="shape"/>
</filter>
<filter id="filter1_d" x="0.116273" y="22.7567" width="54.6645" height="58.2475" filterUnits="userSpaceOnUse" color-interpolation-filters="sRGB">
<feFlood flood-opacity="0" result="BackgroundImageFix"/>
<feColorMatrix in="SourceAlpha" type="matrix" values="0 0 0 0 0 0 0 0 0 0 0 0 0 0 0 0 0 0 127 0" result="hardAlpha"/>
<feOffset dx="4.26401" dy="4.26401"/>
<feGaussianBlur stdDeviation="11.5343"/>
<feColorMatrix type="matrix" values="0 0 0 0 1 0 0 0 0 1 0 0 0 0 1 0 0 0 0.6 0"/>
<feBlend mode="normal" in2="BackgroundImageFix" result="effect1_dropShadow"/>
<feBlend mode="normal" in="SourceGraphic" in2="effect1_dropShadow" result="shape"/>
</filter>
<filter id="filter2_d" x="45.2813" y="28.0316" width="50.3667" height="50.3667" filterUnits="userSpaceOnUse" color-interpolation-filters="sRGB">
<feFlood flood-opacity="0" result="BackgroundImageFix"/>
<feColorMatrix in="SourceAlpha" type="matrix" values="0 0 0 0 0 0 0 0 0 0 0 0 0 0 0 0 0 0 127 0" result="hardAlpha"/>
<feOffset dx="2.12535" dy="2.12535"/>
<feGaussianBlur stdDeviation="4.85902"/>
<feColorMatrix type="matrix" values="0 0 0 0 1 0 0 0 0 1 0 0 0 0 1 0 0 0 0.5 0"/>
<feBlend mode="normal" in2="BackgroundImageFix" result="effect1_dropShadow"/>
<feBlend mode="normal" in="SourceGraphic" in2="effect1_dropShadow" result="shape"/>
</filter>
<filter id="filter3_d" x="37.5399" y="23.911" width="66.9598" height="66.455" filterUnits="userSpaceOnUse" color-interpolation-filters="sRGB">
<feFlood flood-opacity="0" result="BackgroundImageFix"/>
<feColorMatrix in="SourceAlpha" type="matrix" values="0 0 0 0 0 0 0 0 0 0 0 0 0 0 0 0 0 0 127 0" result="hardAlpha"/>
<feOffset dx="3.18803" dy="3.18803"/>
<feGaussianBlur stdDeviation="7.97007"/>
<feColorMatrix type="matrix" values="0 0 0 0 1 0 0 0 0 1 0 0 0 0 1 0 0 0 0.6 0"/>
<feBlend mode="normal" in2="BackgroundImageFix" result="effect1_dropShadow"/>
<feBlend mode="normal" in="SourceGraphic" in2="effect1_dropShadow" result="shape"/>
</filter>
<filter id="filter4_d" x="45.9997" y="21.6055" width="28.6923" height="29.7549" filterUnits="userSpaceOnUse" color-interpolation-filters="sRGB">
<feFlood flood-opacity="0" result="BackgroundImageFix"/>
<feColorMatrix in="SourceAlpha" type="matrix" values="0 0 0 0 0 0 0 0 0 0 0 0 0 0 0 0 0 0 127 0" result="hardAlpha"/>
<feOffset dx="3.18803" dy="3.18803"/>
<feGaussianBlur stdDeviation="5.31338"/>
<feColorMatrix type="matrix" values="0 0 0 0 1 0 0 0 0 1 0 0 0 0 1 0 0 0 0.7 0"/>
<feBlend mode="normal" in2="BackgroundImageFix" result="effect1_dropShadow"/>
<feBlend mode="normal" in="SourceGraphic" in2="effect1_dropShadow" result="shape"/>
</filter>
<filter id="filter5_d" x="36.4353" y="59.8618" width="25.5042" height="26.5669" filterUnits="userSpaceOnUse" color-interpolation-filters="sRGB">
<feFlood flood-opacity="0" result="BackgroundImageFix"/>
<feColorMatrix in="SourceAlpha" type="matrix" values="0 0 0 0 0 0 0 0 0 0 0 0 0 0 0 0 0 0 127 0" result="hardAlpha"/>
<feOffset dx="3.18803" dy="3.18803"/>
<feGaussianBlur stdDeviation="5.31338"/>
<feColorMatrix type="matrix" values="0 0 0 0 1 0 0 0 0 1 0 0 0 0 1 0 0 0 0.7 0"/>
<feBlend mode="normal" in2="BackgroundImageFix" result="effect1_dropShadow"/>
<feBlend mode="normal" in="SourceGraphic" in2="effect1_dropShadow" result="shape"/>
</filter>
<filter id="filter6_d" x="77.8796" y="71.5513" width="23.3789" height="24.4415" filterUnits="userSpaceOnUse" color-interpolation-filters="sRGB">
<feFlood flood-opacity="0" result="BackgroundImageFix"/>
<feColorMatrix in="SourceAlpha" type="matrix" values="0 0 0 0 0 0 0 0 0 0 0 0 0 0 0 0 0 0 127 0" result="hardAlpha"/>
<feOffset dx="3.18803" dy="3.18803"/>
<feGaussianBlur stdDeviation="5.31338"/>
<feColorMatrix type="matrix" values="0 0 0 0 1 0 0 0 0 1 0 0 0 0 1 0 0 0 0.7 0"/>
<feBlend mode="normal" in2="BackgroundImageFix" result="effect1_dropShadow"/>
<feBlend mode="normal" in="SourceGraphic" in2="effect1_dropShadow" result="shape"/>
</filter>
<linearGradient id="paint0_linear" x1="62.3251" y1="64.407" x2="80.7975" y2="23.1661" gradientUnits="userSpaceOnUse">
<stop stop-color="#FF4E64"/>
<stop offset="1" stop-color="#EB31D6"/>
</linearGradient>
</defs>
</svg>
